<mxfile host="app.diagrams.net" agent="Mozilla/5.0 (Windows NT 10.0; Win64; x64) AppleWebKit/537.36 (KHTML, like Gecko) Chrome/135.0.0.0 Safari/537.36 OPR/120.0.0.0" version="28.1.1" pages="4">
  <diagram name="ModeloDominio" id="bCZvV9yb4Iyw5BmVlnvM">
    <mxGraphModel dx="1426" dy="711" grid="1" gridSize="10" guides="1" tooltips="1" connect="1" arrows="1" fold="1" page="1" pageScale="1" pageWidth="827" pageHeight="1169" math="0" shadow="0">
      <root>
        <mxCell id="0" />
        <mxCell id="1" parent="0" />
        <mxCell id="agMcymQ5COdE-LydsrBo-42" value="" style="endArrow=block;endSize=10;endFill=0;shadow=0;strokeWidth=1;rounded=0;curved=0;edgeStyle=elbowEdgeStyle;elbow=vertical;exitX=0.5;exitY=0;exitDx=0;exitDy=0;entryX=0.506;entryY=1.078;entryDx=0;entryDy=0;entryPerimeter=0;" parent="1" edge="1">
          <mxGeometry width="160" relative="1" as="geometry">
            <mxPoint x="739.16" y="302" as="sourcePoint" />
            <mxPoint x="1040" y="216.02800000000002" as="targetPoint" />
            <Array as="points">
              <mxPoint x="919.16" y="260" />
            </Array>
          </mxGeometry>
        </mxCell>
        <mxCell id="dpizFBpJidmlaV7K1fqd-15" value="&lt;font face=&quot;Times New Roman&quot; style=&quot;font-size: 16px;&quot;&gt;&lt;b style=&quot;&quot;&gt;MODELO DE DOMINIO:&lt;/b&gt;&lt;/font&gt;" style="text;html=1;align=center;verticalAlign=middle;whiteSpace=wrap;rounded=0;" parent="1" vertex="1">
          <mxGeometry x="490" y="30" width="460" height="110" as="geometry" />
        </mxCell>
        <mxCell id="agMcymQ5COdE-LydsrBo-51" value="Usuario" style="swimlane;fontStyle=0;childLayout=stackLayout;horizontal=1;startSize=26;fillColor=none;horizontalStack=0;resizeParent=1;resizeParentMax=0;resizeLast=0;collapsible=1;marginBottom=0;whiteSpace=wrap;html=1;" parent="1" vertex="1">
          <mxGeometry x="970" y="110" width="140" height="104" as="geometry" />
        </mxCell>
        <mxCell id="agMcymQ5COdE-LydsrBo-52" value="nickname: string&amp;nbsp;&lt;div&gt;&lt;br&gt;&lt;/div&gt;" style="text;strokeColor=none;fillColor=none;align=left;verticalAlign=top;spacingLeft=4;spacingRight=4;overflow=hidden;rotatable=0;points=[[0,0.5],[1,0.5]];portConstraint=eastwest;whiteSpace=wrap;html=1;" parent="agMcymQ5COdE-LydsrBo-51" vertex="1">
          <mxGeometry y="26" width="140" height="26" as="geometry" />
        </mxCell>
        <mxCell id="agMcymQ5COdE-LydsrBo-53" value="&lt;div&gt;&lt;span style=&quot;background-color: transparent; color: light-dark(rgb(0, 0, 0), rgb(255, 255, 255));&quot;&gt;nombre: string&lt;/span&gt;&lt;/div&gt;&lt;div&gt;&lt;span style=&quot;background-color: transparent; color: light-dark(rgb(0, 0, 0), rgb(255, 255, 255));&quot;&gt;&lt;br&gt;&lt;/span&gt;&lt;/div&gt;" style="text;strokeColor=none;fillColor=none;align=left;verticalAlign=top;spacingLeft=4;spacingRight=4;overflow=hidden;rotatable=0;points=[[0,0.5],[1,0.5]];portConstraint=eastwest;whiteSpace=wrap;html=1;" parent="agMcymQ5COdE-LydsrBo-51" vertex="1">
          <mxGeometry y="52" width="140" height="26" as="geometry" />
        </mxCell>
        <mxCell id="agMcymQ5COdE-LydsrBo-54" value="email: string" style="text;strokeColor=none;fillColor=none;align=left;verticalAlign=top;spacingLeft=4;spacingRight=4;overflow=hidden;rotatable=0;points=[[0,0.5],[1,0.5]];portConstraint=eastwest;whiteSpace=wrap;html=1;" parent="agMcymQ5COdE-LydsrBo-51" vertex="1">
          <mxGeometry y="78" width="140" height="26" as="geometry" />
        </mxCell>
        <mxCell id="dpizFBpJidmlaV7K1fqd-20" value="&amp;lt;&amp;lt;enum&amp;gt;&amp;gt;&lt;div&gt;DTNivel&lt;/div&gt;" style="swimlane;fontStyle=0;childLayout=stackLayout;horizontal=1;startSize=26;fillColor=none;horizontalStack=0;resizeParent=1;resizeParentMax=0;resizeLast=0;collapsible=1;marginBottom=0;whiteSpace=wrap;html=1;" parent="1" vertex="1">
          <mxGeometry x="390" y="220" width="150" height="122" as="geometry" />
        </mxCell>
        <mxCell id="dpizFBpJidmlaV7K1fqd-21" value="Platino" style="text;strokeColor=none;fillColor=none;align=left;verticalAlign=top;spacingLeft=4;spacingRight=4;overflow=hidden;rotatable=0;points=[[0,0.5],[1,0.5]];portConstraint=eastwest;whiteSpace=wrap;html=1;" parent="dpizFBpJidmlaV7K1fqd-20" vertex="1">
          <mxGeometry y="26" width="150" height="24" as="geometry" />
        </mxCell>
        <mxCell id="dpizFBpJidmlaV7K1fqd-22" value="Oro" style="text;strokeColor=none;fillColor=none;align=left;verticalAlign=top;spacingLeft=4;spacingRight=4;overflow=hidden;rotatable=0;points=[[0,0.5],[1,0.5]];portConstraint=eastwest;whiteSpace=wrap;html=1;" parent="dpizFBpJidmlaV7K1fqd-20" vertex="1">
          <mxGeometry y="50" width="150" height="20" as="geometry" />
        </mxCell>
        <mxCell id="dpizFBpJidmlaV7K1fqd-23" value="Plata&lt;span style=&quot;color: rgba(0, 0, 0, 0); font-family: monospace; font-size: 0px; text-wrap-mode: nowrap;&quot;&gt;%3CmxGraphModel%3E%3Croot%3E%3CmxCell%20id%3D%220%22%2F%3E%3CmxCell%20id%3D%221%22%20parent%3D%220%22%2F%3E%3CmxCell%20id%3D%222%22%20value%3D%22%26amp%3Blt%3B%26amp%3Blt%3Bdatatype%26amp%3Bgt%3B%26amp%3Bgt%3B%26lt%3Bdiv%26gt%3BDTFecha%26lt%3B%2Fdiv%26gt%3B%22%20style%3D%22swimlane%3BfontStyle%3D0%3BchildLayout%3DstackLayout%3Bhorizontal%3D1%3BstartSize%3D26%3BfillColor%3Dnone%3BhorizontalStack%3D0%3BresizeParent%3D1%3BresizeParentMax%3D0%3BresizeLast%3D0%3Bcollapsible%3D1%3BmarginBottom%3D0%3BwhiteSpace%3Dwrap%3Bhtml%3D1%3B%22%20vertex%3D%221%22%20parent%3D%221%22%3E%3CmxGeometry%20x%3D%22390%22%20y%3D%2290%22%20width%3D%22150%22%20height%3D%22100%22%20as%3D%22geometry%22%2F%3E%3C%2FmxCell%3E%3CmxCell%20id%3D%223%22%20value%3D%22dia%3Aint%22%20style%3D%22text%3BstrokeColor%3Dnone%3BfillColor%3Dnone%3Balign%3Dleft%3BverticalAlign%3Dtop%3BspacingLeft%3D4%3BspacingRight%3D4%3Boverflow%3Dhidden%3Brotatable%3D0%3Bpoints%3D%5B%5B0%2C0.5%5D%2C%5B1%2C0.5%5D%5D%3BportConstraint%3Deastwest%3BwhiteSpace%3Dwrap%3Bhtml%3D1%3B%22%20vertex%3D%221%22%20parent%3D%222%22%3E%3CmxGeometry%20y%3D%2226%22%20width%3D%22150%22%20height%3D%2226%22%20as%3D%22geometry%22%2F%3E%3C%2FmxCell%3E%3CmxCell%20id%3D%224%22%20value%3D%22mes%3A%20int%22%20style%3D%22text%3BstrokeColor%3Dnone%3BfillColor%3Dnone%3Balign%3Dleft%3BverticalAlign%3Dtop%3BspacingLeft%3D4%3BspacingRight%3D4%3Boverflow%3Dhidden%3Brotatable%3D0%3Bpoints%3D%5B%5B0%2C0.5%5D%2C%5B1%2C0.5%5D%5D%3BportConstraint%3Deastwest%3BwhiteSpace%3Dwrap%3Bhtml%3D1%3B%22%20vertex%3D%221%22%20parent%3D%222%22%3E%3CmxGeometry%20y%3D%2252%22%20width%3D%22150%22%20height%3D%2226%22%20as%3D%22geometry%22%2F%3E%3C%2FmxCell%3E%3CmxCell%20id%3D%225%22%20value%3D%22anio%3A%20int%22%20style%3D%22text%3BstrokeColor%3Dnone%3BfillColor%3Dnone%3Balign%3Dleft%3BverticalAlign%3Dtop%3BspacingLeft%3D4%3BspacingRight%3D4%3Boverflow%3Dhidden%3Brotatable%3D0%3Bpoints%3D%5B%5B0%2C0.5%5D%2C%5B1%2C0.5%5D%5D%3BportConstraint%3Deastwest%3BwhiteSpace%3Dwrap%3Bhtml%3D1%3B%22%20vertex%3D%221%22%20parent%3D%222%22%3E%3CmxGeometry%20y%3D%2278%22%20width%3D%22150%22%20height%3D%2222%22%20as%3D%22geometry%22%2F%3E%3C%2FmxCell%3E%3C%2Froot%3E%3C%2FmxGraphModel%3E&lt;/span&gt;" style="text;strokeColor=none;fillColor=none;align=left;verticalAlign=top;spacingLeft=4;spacingRight=4;overflow=hidden;rotatable=0;points=[[0,0.5],[1,0.5]];portConstraint=eastwest;whiteSpace=wrap;html=1;" parent="dpizFBpJidmlaV7K1fqd-20" vertex="1">
          <mxGeometry y="70" width="150" height="22" as="geometry" />
        </mxCell>
        <mxCell id="dpizFBpJidmlaV7K1fqd-24" value="Bronce" style="text;strokeColor=none;fillColor=none;align=left;verticalAlign=top;spacingLeft=4;spacingRight=4;overflow=hidden;rotatable=0;points=[[0,0.5],[1,0.5]];portConstraint=eastwest;whiteSpace=wrap;html=1;" parent="dpizFBpJidmlaV7K1fqd-20" vertex="1">
          <mxGeometry y="92" width="150" height="30" as="geometry" />
        </mxCell>
        <mxCell id="agMcymQ5COdE-LydsrBo-56" value="Asistente" style="swimlane;fontStyle=0;childLayout=stackLayout;horizontal=1;startSize=26;fillColor=none;horizontalStack=0;resizeParent=1;resizeParentMax=0;resizeLast=0;collapsible=1;marginBottom=0;whiteSpace=wrap;html=1;" parent="1" vertex="1">
          <mxGeometry x="670" y="302" width="140" height="78" as="geometry">
            <mxRectangle x="670" y="302" width="90" height="30" as="alternateBounds" />
          </mxGeometry>
        </mxCell>
        <mxCell id="agMcymQ5COdE-LydsrBo-57" value="apellido: string&amp;nbsp;&lt;div&gt;&lt;br&gt;&lt;/div&gt;" style="text;strokeColor=none;fillColor=none;align=left;verticalAlign=top;spacingLeft=4;spacingRight=4;overflow=hidden;rotatable=0;points=[[0,0.5],[1,0.5]];portConstraint=eastwest;whiteSpace=wrap;html=1;" parent="agMcymQ5COdE-LydsrBo-56" vertex="1">
          <mxGeometry y="26" width="140" height="26" as="geometry" />
        </mxCell>
        <mxCell id="agMcymQ5COdE-LydsrBo-58" value="&lt;div&gt;FNacimiento&lt;span style=&quot;background-color: transparent; color: light-dark(rgb(0, 0, 0), rgb(255, 255, 255));&quot;&gt;: date&lt;/span&gt;&lt;/div&gt;" style="text;strokeColor=none;fillColor=none;align=left;verticalAlign=top;spacingLeft=4;spacingRight=4;overflow=hidden;rotatable=0;points=[[0,0.5],[1,0.5]];portConstraint=eastwest;whiteSpace=wrap;html=1;" parent="agMcymQ5COdE-LydsrBo-56" vertex="1">
          <mxGeometry y="52" width="140" height="26" as="geometry" />
        </mxCell>
        <mxCell id="agMcymQ5COdE-LydsrBo-60" value="Organizador" style="swimlane;fontStyle=0;childLayout=stackLayout;horizontal=1;startSize=26;fillColor=none;horizontalStack=0;resizeParent=1;resizeParentMax=0;resizeLast=0;collapsible=1;marginBottom=0;whiteSpace=wrap;html=1;" parent="1" vertex="1">
          <mxGeometry x="970" y="302" width="140" height="78" as="geometry" />
        </mxCell>
        <mxCell id="agMcymQ5COdE-LydsrBo-61" value="descripcion: string&amp;nbsp;&lt;div&gt;&lt;br&gt;&lt;/div&gt;" style="text;strokeColor=none;fillColor=none;align=left;verticalAlign=top;spacingLeft=4;spacingRight=4;overflow=hidden;rotatable=0;points=[[0,0.5],[1,0.5]];portConstraint=eastwest;whiteSpace=wrap;html=1;" parent="agMcymQ5COdE-LydsrBo-60" vertex="1">
          <mxGeometry y="26" width="140" height="26" as="geometry" />
        </mxCell>
        <mxCell id="lXtKiYIN07wwhuMebqhm-2" value="&lt;div&gt;web: string&lt;/div&gt;" style="text;strokeColor=none;fillColor=none;align=left;verticalAlign=top;spacingLeft=4;spacingRight=4;overflow=hidden;rotatable=0;points=[[0,0.5],[1,0.5]];portConstraint=eastwest;whiteSpace=wrap;html=1;" parent="agMcymQ5COdE-LydsrBo-60" vertex="1">
          <mxGeometry y="52" width="140" height="26" as="geometry" />
        </mxCell>
        <mxCell id="agMcymQ5COdE-LydsrBo-63" value="" style="endArrow=none;html=1;rounded=0;exitX=0.5;exitY=0;exitDx=0;exitDy=0;" parent="1" source="agMcymQ5COdE-LydsrBo-60" edge="1">
          <mxGeometry width="50" height="50" relative="1" as="geometry">
            <mxPoint x="990" y="520" as="sourcePoint" />
            <mxPoint x="1040" y="260" as="targetPoint" />
          </mxGeometry>
        </mxCell>
        <mxCell id="agMcymQ5COdE-LydsrBo-67" value="Institucion" style="swimlane;fontStyle=0;childLayout=stackLayout;horizontal=1;startSize=26;fillColor=none;horizontalStack=0;resizeParent=1;resizeParentMax=0;resizeLast=0;collapsible=1;marginBottom=0;whiteSpace=wrap;html=1;" parent="1" vertex="1">
          <mxGeometry x="670" y="450" width="140" height="104" as="geometry" />
        </mxCell>
        <mxCell id="agMcymQ5COdE-LydsrBo-68" value="nombre: string&amp;nbsp;&lt;div&gt;&lt;br&gt;&lt;/div&gt;" style="text;strokeColor=none;fillColor=none;align=left;verticalAlign=top;spacingLeft=4;spacingRight=4;overflow=hidden;rotatable=0;points=[[0,0.5],[1,0.5]];portConstraint=eastwest;whiteSpace=wrap;html=1;" parent="agMcymQ5COdE-LydsrBo-67" vertex="1">
          <mxGeometry y="26" width="140" height="26" as="geometry" />
        </mxCell>
        <mxCell id="agMcymQ5COdE-LydsrBo-69" value="&lt;div&gt;descripcion: string&lt;/div&gt;" style="text;strokeColor=none;fillColor=none;align=left;verticalAlign=top;spacingLeft=4;spacingRight=4;overflow=hidden;rotatable=0;points=[[0,0.5],[1,0.5]];portConstraint=eastwest;whiteSpace=wrap;html=1;" parent="agMcymQ5COdE-LydsrBo-67" vertex="1">
          <mxGeometry y="52" width="140" height="26" as="geometry" />
        </mxCell>
        <mxCell id="lXtKiYIN07wwhuMebqhm-1" value="&lt;div&gt;web: string&lt;/div&gt;" style="text;strokeColor=none;fillColor=none;align=left;verticalAlign=top;spacingLeft=4;spacingRight=4;overflow=hidden;rotatable=0;points=[[0,0.5],[1,0.5]];portConstraint=eastwest;whiteSpace=wrap;html=1;" parent="agMcymQ5COdE-LydsrBo-67" vertex="1">
          <mxGeometry y="78" width="140" height="26" as="geometry" />
        </mxCell>
        <mxCell id="agMcymQ5COdE-LydsrBo-77" value="Edicion" style="swimlane;fontStyle=0;childLayout=stackLayout;horizontal=1;startSize=26;fillColor=none;horizontalStack=0;resizeParent=1;resizeParentMax=0;resizeLast=0;collapsible=1;marginBottom=0;whiteSpace=wrap;html=1;" parent="1" vertex="1">
          <mxGeometry x="650" y="790" width="140" height="156" as="geometry" />
        </mxCell>
        <mxCell id="agMcymQ5COdE-LydsrBo-78" value="nombre: string&amp;nbsp;&lt;div&gt;&lt;br&gt;&lt;/div&gt;" style="text;strokeColor=none;fillColor=none;align=left;verticalAlign=top;spacingLeft=4;spacingRight=4;overflow=hidden;rotatable=0;points=[[0,0.5],[1,0.5]];portConstraint=eastwest;whiteSpace=wrap;html=1;" parent="agMcymQ5COdE-LydsrBo-77" vertex="1">
          <mxGeometry y="26" width="140" height="26" as="geometry" />
        </mxCell>
        <mxCell id="agMcymQ5COdE-LydsrBo-79" value="&lt;div&gt;sigla: string&lt;/div&gt;" style="text;strokeColor=none;fillColor=none;align=left;verticalAlign=top;spacingLeft=4;spacingRight=4;overflow=hidden;rotatable=0;points=[[0,0.5],[1,0.5]];portConstraint=eastwest;whiteSpace=wrap;html=1;" parent="agMcymQ5COdE-LydsrBo-77" vertex="1">
          <mxGeometry y="52" width="140" height="26" as="geometry" />
        </mxCell>
        <mxCell id="agMcymQ5COdE-LydsrBo-80" value="&lt;div&gt;FechaIncio: date&lt;/div&gt;" style="text;strokeColor=none;fillColor=none;align=left;verticalAlign=top;spacingLeft=4;spacingRight=4;overflow=hidden;rotatable=0;points=[[0,0.5],[1,0.5]];portConstraint=eastwest;whiteSpace=wrap;html=1;" parent="agMcymQ5COdE-LydsrBo-77" vertex="1">
          <mxGeometry y="78" width="140" height="26" as="geometry" />
        </mxCell>
        <mxCell id="agMcymQ5COdE-LydsrBo-82" value="&lt;div&gt;FechaFin: date&lt;/div&gt;" style="text;strokeColor=none;fillColor=none;align=left;verticalAlign=top;spacingLeft=4;spacingRight=4;overflow=hidden;rotatable=0;points=[[0,0.5],[1,0.5]];portConstraint=eastwest;whiteSpace=wrap;html=1;" parent="agMcymQ5COdE-LydsrBo-77" vertex="1">
          <mxGeometry y="104" width="140" height="26" as="geometry" />
        </mxCell>
        <mxCell id="agMcymQ5COdE-LydsrBo-81" value="&lt;div&gt;FechaAlta: date&lt;/div&gt;" style="text;strokeColor=none;fillColor=none;align=left;verticalAlign=top;spacingLeft=4;spacingRight=4;overflow=hidden;rotatable=0;points=[[0,0.5],[1,0.5]];portConstraint=eastwest;whiteSpace=wrap;html=1;" parent="agMcymQ5COdE-LydsrBo-77" vertex="1">
          <mxGeometry y="130" width="140" height="26" as="geometry" />
        </mxCell>
        <mxCell id="dpizFBpJidmlaV7K1fqd-25" value="TipoRegistro" style="swimlane;fontStyle=0;childLayout=stackLayout;horizontal=1;startSize=26;fillColor=none;horizontalStack=0;resizeParent=1;resizeParentMax=0;resizeLast=0;collapsible=1;marginBottom=0;whiteSpace=wrap;html=1;" parent="1" vertex="1">
          <mxGeometry x="370" y="680" width="140" height="130" as="geometry" />
        </mxCell>
        <mxCell id="dpizFBpJidmlaV7K1fqd-26" value="nombre: string&amp;nbsp;&lt;div&gt;&lt;br&gt;&lt;/div&gt;" style="text;strokeColor=none;fillColor=none;align=left;verticalAlign=top;spacingLeft=4;spacingRight=4;overflow=hidden;rotatable=0;points=[[0,0.5],[1,0.5]];portConstraint=eastwest;whiteSpace=wrap;html=1;" parent="dpizFBpJidmlaV7K1fqd-25" vertex="1">
          <mxGeometry y="26" width="140" height="26" as="geometry" />
        </mxCell>
        <mxCell id="dpizFBpJidmlaV7K1fqd-27" value="descripcion: string" style="text;strokeColor=none;fillColor=none;align=left;verticalAlign=top;spacingLeft=4;spacingRight=4;overflow=hidden;rotatable=0;points=[[0,0.5],[1,0.5]];portConstraint=eastwest;whiteSpace=wrap;html=1;" parent="dpizFBpJidmlaV7K1fqd-25" vertex="1">
          <mxGeometry y="52" width="140" height="26" as="geometry" />
        </mxCell>
        <mxCell id="dpizFBpJidmlaV7K1fqd-28" value="costo: int" style="text;strokeColor=none;fillColor=none;align=left;verticalAlign=top;spacingLeft=4;spacingRight=4;overflow=hidden;rotatable=0;points=[[0,0.5],[1,0.5]];portConstraint=eastwest;whiteSpace=wrap;html=1;" parent="dpizFBpJidmlaV7K1fqd-25" vertex="1">
          <mxGeometry y="78" width="140" height="26" as="geometry" />
        </mxCell>
        <mxCell id="dpizFBpJidmlaV7K1fqd-29" value="cupos:int" style="text;strokeColor=none;fillColor=none;align=left;verticalAlign=top;spacingLeft=4;spacingRight=4;overflow=hidden;rotatable=0;points=[[0,0.5],[1,0.5]];portConstraint=eastwest;whiteSpace=wrap;html=1;" parent="dpizFBpJidmlaV7K1fqd-25" vertex="1">
          <mxGeometry y="104" width="140" height="26" as="geometry" />
        </mxCell>
        <mxCell id="dpizFBpJidmlaV7K1fqd-30" value="Registro" style="swimlane;fontStyle=0;childLayout=stackLayout;horizontal=1;startSize=26;fillColor=none;horizontalStack=0;resizeParent=1;resizeParentMax=0;resizeLast=0;collapsible=1;marginBottom=0;whiteSpace=wrap;html=1;" parent="1" vertex="1">
          <mxGeometry x="250" y="490" width="140" height="78" as="geometry" />
        </mxCell>
        <mxCell id="dpizFBpJidmlaV7K1fqd-31" value="&lt;div&gt;fecha: date&lt;/div&gt;" style="text;strokeColor=none;fillColor=none;align=left;verticalAlign=top;spacingLeft=4;spacingRight=4;overflow=hidden;rotatable=0;points=[[0,0.5],[1,0.5]];portConstraint=eastwest;whiteSpace=wrap;html=1;" parent="dpizFBpJidmlaV7K1fqd-30" vertex="1">
          <mxGeometry y="26" width="140" height="26" as="geometry" />
        </mxCell>
        <mxCell id="dpizFBpJidmlaV7K1fqd-32" value="&lt;div&gt;/costo_real: int&lt;/div&gt;" style="text;strokeColor=none;fillColor=none;align=left;verticalAlign=top;spacingLeft=4;spacingRight=4;overflow=hidden;rotatable=0;points=[[0,0.5],[1,0.5]];portConstraint=eastwest;whiteSpace=wrap;html=1;" parent="dpizFBpJidmlaV7K1fqd-30" vertex="1">
          <mxGeometry y="52" width="140" height="26" as="geometry" />
        </mxCell>
        <mxCell id="agMcymQ5COdE-LydsrBo-83" value="Evento" style="swimlane;fontStyle=0;childLayout=stackLayout;horizontal=1;startSize=26;fillColor=none;horizontalStack=0;resizeParent=1;resizeParentMax=0;resizeLast=0;collapsible=1;marginBottom=0;whiteSpace=wrap;html=1;" parent="1" vertex="1">
          <mxGeometry x="1040" y="790" width="140" height="130" as="geometry" />
        </mxCell>
        <mxCell id="agMcymQ5COdE-LydsrBo-84" value="nombre: string&amp;nbsp;&lt;div&gt;&lt;br&gt;&lt;/div&gt;" style="text;strokeColor=none;fillColor=none;align=left;verticalAlign=top;spacingLeft=4;spacingRight=4;overflow=hidden;rotatable=0;points=[[0,0.5],[1,0.5]];portConstraint=eastwest;whiteSpace=wrap;html=1;" parent="agMcymQ5COdE-LydsrBo-83" vertex="1">
          <mxGeometry y="26" width="140" height="26" as="geometry" />
        </mxCell>
        <mxCell id="agMcymQ5COdE-LydsrBo-85" value="&lt;div&gt;sigla: string&lt;/div&gt;" style="text;strokeColor=none;fillColor=none;align=left;verticalAlign=top;spacingLeft=4;spacingRight=4;overflow=hidden;rotatable=0;points=[[0,0.5],[1,0.5]];portConstraint=eastwest;whiteSpace=wrap;html=1;" parent="agMcymQ5COdE-LydsrBo-83" vertex="1">
          <mxGeometry y="52" width="140" height="26" as="geometry" />
        </mxCell>
        <mxCell id="agMcymQ5COdE-LydsrBo-86" value="&lt;div&gt;descripcion: string&lt;/div&gt;" style="text;strokeColor=none;fillColor=none;align=left;verticalAlign=top;spacingLeft=4;spacingRight=4;overflow=hidden;rotatable=0;points=[[0,0.5],[1,0.5]];portConstraint=eastwest;whiteSpace=wrap;html=1;" parent="agMcymQ5COdE-LydsrBo-83" vertex="1">
          <mxGeometry y="78" width="140" height="26" as="geometry" />
        </mxCell>
        <mxCell id="agMcymQ5COdE-LydsrBo-87" value="&lt;div&gt;FechaAlta: date&lt;/div&gt;" style="text;strokeColor=none;fillColor=none;align=left;verticalAlign=top;spacingLeft=4;spacingRight=4;overflow=hidden;rotatable=0;points=[[0,0.5],[1,0.5]];portConstraint=eastwest;whiteSpace=wrap;html=1;" parent="agMcymQ5COdE-LydsrBo-83" vertex="1">
          <mxGeometry y="104" width="140" height="26" as="geometry" />
        </mxCell>
        <mxCell id="agMcymQ5COdE-LydsrBo-89" value="" style="endArrow=none;html=1;rounded=0;exitX=0;exitY=0.5;exitDx=0;exitDy=0;entryX=1;entryY=0.5;entryDx=0;entryDy=0;" parent="1" source="agMcymQ5COdE-LydsrBo-85" target="agMcymQ5COdE-LydsrBo-79" edge="1">
          <mxGeometry width="50" height="50" relative="1" as="geometry">
            <mxPoint x="1150" y="720" as="sourcePoint" />
            <mxPoint x="990" y="720" as="targetPoint" />
          </mxGeometry>
        </mxCell>
        <mxCell id="agMcymQ5COdE-LydsrBo-92" value="" style="endArrow=none;html=1;rounded=0;exitX=0;exitY=0.5;exitDx=0;exitDy=0;entryX=0;entryY=0.5;entryDx=0;entryDy=0;" parent="1" source="agMcymQ5COdE-LydsrBo-57" target="agMcymQ5COdE-LydsrBo-78" edge="1">
          <mxGeometry width="50" height="50" relative="1" as="geometry">
            <mxPoint x="730" y="550" as="sourcePoint" />
            <mxPoint x="570" y="670" as="targetPoint" />
            <Array as="points">
              <mxPoint x="570" y="340" />
              <mxPoint x="570" y="550" />
              <mxPoint x="570" y="830" />
            </Array>
          </mxGeometry>
        </mxCell>
        <mxCell id="agMcymQ5COdE-LydsrBo-93" value="" style="endArrow=none;html=1;rounded=0;exitX=0.5;exitY=0;exitDx=0;exitDy=0;entryX=0.498;entryY=1.103;entryDx=0;entryDy=0;entryPerimeter=0;" parent="1" source="agMcymQ5COdE-LydsrBo-67" target="agMcymQ5COdE-LydsrBo-58" edge="1">
          <mxGeometry width="50" height="50" relative="1" as="geometry">
            <mxPoint x="870" y="505" as="sourcePoint" />
            <mxPoint x="770" y="410" as="targetPoint" />
          </mxGeometry>
        </mxCell>
        <mxCell id="dpizFBpJidmlaV7K1fqd-33" value="Patrocinio" style="swimlane;fontStyle=0;childLayout=stackLayout;horizontal=1;startSize=26;fillColor=none;horizontalStack=0;resizeParent=1;resizeParentMax=0;resizeLast=0;collapsible=1;marginBottom=0;whiteSpace=wrap;html=1;" parent="1" vertex="1">
          <mxGeometry x="830" y="576" width="140" height="160" as="geometry" />
        </mxCell>
        <mxCell id="dpizFBpJidmlaV7K1fqd-34" value="&lt;div&gt;fecha:date&lt;/div&gt;" style="text;strokeColor=none;fillColor=none;align=left;verticalAlign=top;spacingLeft=4;spacingRight=4;overflow=hidden;rotatable=0;points=[[0,0.5],[1,0.5]];portConstraint=eastwest;whiteSpace=wrap;html=1;" parent="dpizFBpJidmlaV7K1fqd-33" vertex="1">
          <mxGeometry y="26" width="140" height="26" as="geometry" />
        </mxCell>
        <mxCell id="dpizFBpJidmlaV7K1fqd-35" value="monto:float" style="text;strokeColor=none;fillColor=none;align=left;verticalAlign=top;spacingLeft=4;spacingRight=4;overflow=hidden;rotatable=0;points=[[0,0.5],[1,0.5]];portConstraint=eastwest;whiteSpace=wrap;html=1;" parent="dpizFBpJidmlaV7K1fqd-33" vertex="1">
          <mxGeometry y="52" width="140" height="26" as="geometry" />
        </mxCell>
        <mxCell id="dpizFBpJidmlaV7K1fqd-36" value="codigo:string" style="text;strokeColor=none;fillColor=none;align=left;verticalAlign=top;spacingLeft=4;spacingRight=4;overflow=hidden;rotatable=0;points=[[0,0.5],[1,0.5]];portConstraint=eastwest;whiteSpace=wrap;html=1;" parent="dpizFBpJidmlaV7K1fqd-33" vertex="1">
          <mxGeometry y="78" width="140" height="26" as="geometry" />
        </mxCell>
        <mxCell id="dpizFBpJidmlaV7K1fqd-37" value="nivel: DTNivel" style="text;strokeColor=none;fillColor=none;align=left;verticalAlign=top;spacingLeft=4;spacingRight=4;overflow=hidden;rotatable=0;points=[[0,0.5],[1,0.5]];portConstraint=eastwest;whiteSpace=wrap;html=1;" parent="dpizFBpJidmlaV7K1fqd-33" vertex="1">
          <mxGeometry y="104" width="140" height="26" as="geometry" />
        </mxCell>
        <mxCell id="Nmh7_O1KkESDejtTiDmn-7" value="cupo: int" style="text;strokeColor=none;fillColor=none;align=left;verticalAlign=top;spacingLeft=4;spacingRight=4;overflow=hidden;rotatable=0;points=[[0,0.5],[1,0.5]];portConstraint=eastwest;whiteSpace=wrap;html=1;" vertex="1" parent="dpizFBpJidmlaV7K1fqd-33">
          <mxGeometry y="130" width="140" height="30" as="geometry" />
        </mxCell>
        <mxCell id="agMcymQ5COdE-LydsrBo-94" value="*" style="text;html=1;align=center;verticalAlign=middle;whiteSpace=wrap;rounded=0;" parent="1" vertex="1">
          <mxGeometry x="730" y="380" width="30" height="20" as="geometry" />
        </mxCell>
        <mxCell id="agMcymQ5COdE-LydsrBo-95" value="1" style="text;html=1;align=center;verticalAlign=middle;whiteSpace=wrap;rounded=0;" parent="1" vertex="1">
          <mxGeometry x="730" y="430" width="30" height="20" as="geometry" />
        </mxCell>
        <mxCell id="agMcymQ5COdE-LydsrBo-98" value="*" style="text;html=1;align=center;verticalAlign=middle;whiteSpace=wrap;rounded=0;" parent="1" vertex="1">
          <mxGeometry x="714" y="770" width="30" height="20" as="geometry" />
        </mxCell>
        <mxCell id="agMcymQ5COdE-LydsrBo-99" value="*" style="text;html=1;align=center;verticalAlign=middle;whiteSpace=wrap;rounded=0;" parent="1" vertex="1">
          <mxGeometry x="640" y="318" width="30" height="20" as="geometry" />
        </mxCell>
        <mxCell id="agMcymQ5COdE-LydsrBo-100" value="Categoria" style="swimlane;fontStyle=0;childLayout=stackLayout;horizontal=1;startSize=26;fillColor=none;horizontalStack=0;resizeParent=1;resizeParentMax=0;resizeLast=0;collapsible=1;marginBottom=0;whiteSpace=wrap;html=1;" parent="1" vertex="1">
          <mxGeometry x="1040" y="1030" width="140" height="52" as="geometry" />
        </mxCell>
        <mxCell id="agMcymQ5COdE-LydsrBo-101" value="&lt;div&gt;nombre : string&lt;/div&gt;" style="text;strokeColor=none;fillColor=none;align=left;verticalAlign=top;spacingLeft=4;spacingRight=4;overflow=hidden;rotatable=0;points=[[0,0.5],[1,0.5]];portConstraint=eastwest;whiteSpace=wrap;html=1;" parent="agMcymQ5COdE-LydsrBo-100" vertex="1">
          <mxGeometry y="26" width="140" height="26" as="geometry" />
        </mxCell>
        <mxCell id="agMcymQ5COdE-LydsrBo-103" value="" style="endArrow=none;html=1;rounded=0;exitX=0.498;exitY=1.146;exitDx=0;exitDy=0;exitPerimeter=0;entryX=0.5;entryY=0;entryDx=0;entryDy=0;" parent="1" target="agMcymQ5COdE-LydsrBo-100" edge="1">
          <mxGeometry width="50" height="50" relative="1" as="geometry">
            <mxPoint x="1109.0000000000002" y="919.9960000000001" as="sourcePoint" />
            <mxPoint x="1109" y="990" as="targetPoint" />
          </mxGeometry>
        </mxCell>
        <mxCell id="agMcymQ5COdE-LydsrBo-104" value="" style="endArrow=none;dashed=1;html=1;rounded=0;exitX=1;exitY=0.5;exitDx=0;exitDy=0;" parent="1" source="dpizFBpJidmlaV7K1fqd-31" edge="1">
          <mxGeometry width="50" height="50" relative="1" as="geometry">
            <mxPoint x="340" y="400" as="sourcePoint" />
            <mxPoint x="570" y="528" as="targetPoint" />
            <Array as="points">
              <mxPoint x="390" y="528" />
            </Array>
          </mxGeometry>
        </mxCell>
        <mxCell id="dpizFBpJidmlaV7K1fqd-43" value="patrocina&amp;gt;" style="text;html=1;align=center;verticalAlign=middle;whiteSpace=wrap;rounded=0;" parent="1" vertex="1">
          <mxGeometry x="650" y="630" width="30" height="20" as="geometry" />
        </mxCell>
        <mxCell id="dpizFBpJidmlaV7K1fqd-44" value="pertenece&amp;gt;" style="text;html=1;align=center;verticalAlign=middle;whiteSpace=wrap;rounded=0;" parent="1" vertex="1">
          <mxGeometry x="760" y="400" width="30" height="20" as="geometry" />
        </mxCell>
        <mxCell id="dpizFBpJidmlaV7K1fqd-45" value="se registra para&amp;gt;" style="text;html=1;align=center;verticalAlign=middle;whiteSpace=wrap;rounded=0;" parent="1" vertex="1">
          <mxGeometry x="560" y="400" width="130" height="20" as="geometry" />
        </mxCell>
        <mxCell id="dpizFBpJidmlaV7K1fqd-46" value="1..*" style="text;html=1;align=center;verticalAlign=middle;whiteSpace=wrap;rounded=0;" parent="1" vertex="1">
          <mxGeometry x="1110" y="1010" width="30" height="20" as="geometry" />
        </mxCell>
        <mxCell id="dpizFBpJidmlaV7K1fqd-47" value="1..*" style="text;html=1;align=center;verticalAlign=middle;whiteSpace=wrap;rounded=0;" parent="1" vertex="1">
          <mxGeometry x="1110" y="920" width="30" height="20" as="geometry" />
        </mxCell>
        <mxCell id="dpizFBpJidmlaV7K1fqd-48" value="*" style="text;html=1;align=center;verticalAlign=middle;whiteSpace=wrap;rounded=0;" parent="1" vertex="1">
          <mxGeometry x="714" y="556" width="30" height="20" as="geometry" />
        </mxCell>
        <mxCell id="IM8bj27vjW2e1TcxEnKg-4" value="En restricciones:&lt;div&gt;unicidad: nick usuario, correo usuario, nombre evento, nombre edicion,&amp;nbsp;&lt;/div&gt;&lt;div&gt;&lt;br&gt;&lt;/div&gt;&lt;div&gt;regla de negocio lo del 20%&lt;br&gt;&lt;br&gt;&lt;/div&gt;&lt;div&gt;la de dominio de los atributos poner que sean nums naturales cosas como el costo y eso&lt;br&gt;&lt;br&gt;&lt;/div&gt;&lt;div&gt;atributo calculable costo_real de registro&lt;/div&gt;&lt;div&gt;circular asistente tipo registro edicion e institucion&lt;/div&gt;" style="shape=note;whiteSpace=wrap;html=1;backgroundOutline=1;darkOpacity=0.05;" parent="1" vertex="1">
          <mxGeometry x="770" y="1150" width="330" height="296" as="geometry" />
        </mxCell>
        <mxCell id="68dRZxDx_lQtc-Z4TrwH-3" value="" style="endArrow=none;html=1;rounded=0;entryX=0;entryY=0.5;entryDx=0;entryDy=0;" parent="1" edge="1" target="dpizFBpJidmlaV7K1fqd-27">
          <mxGeometry width="50" height="50" relative="1" as="geometry">
            <mxPoint x="305" y="570" as="sourcePoint" />
            <mxPoint x="475" y="630" as="targetPoint" />
            <Array as="points">
              <mxPoint x="305" y="745" />
            </Array>
          </mxGeometry>
        </mxCell>
        <mxCell id="IM8bj27vjW2e1TcxEnKg-5" value="&lt;font face=&quot;Times New Roman&quot; style=&quot;font-size: 20px;&quot;&gt;&lt;b style=&quot;&quot;&gt;Restricciones:&lt;/b&gt;&lt;/font&gt;&lt;div&gt;&lt;font face=&quot;Times New Roman&quot;&gt;&lt;span style=&quot;font-size: 18px;&quot;&gt;&lt;b&gt;&lt;br&gt;&lt;/b&gt;&lt;/span&gt;&lt;/font&gt;&lt;div&gt;&lt;font face=&quot;Times New Roman&quot; style=&quot;font-size: 16px;&quot;&gt;&lt;b style=&quot;&quot;&gt;I. De unicidad:&lt;/b&gt;&lt;/font&gt;&lt;/div&gt;&lt;div&gt;&lt;font face=&quot;Times New Roman&quot; style=&quot;font-size: 16px;&quot;&gt;&lt;b style=&quot;&quot;&gt;.&lt;span style=&quot;white-space: pre;&quot;&gt;&#x9;&lt;/span&gt;.. leer nota&lt;/b&gt;&lt;/font&gt;&lt;/div&gt;&lt;div&gt;&lt;br&gt;&lt;/div&gt;&lt;/div&gt;" style="text;html=1;align=center;verticalAlign=middle;whiteSpace=wrap;rounded=0;" parent="1" vertex="1">
          <mxGeometry x="310" y="1090" width="510" height="111" as="geometry" />
        </mxCell>
        <mxCell id="IM8bj27vjW2e1TcxEnKg-6" value="&lt;font face=&quot;Times New Roman&quot;&gt;&lt;span style=&quot;font-size: 16px;&quot;&gt;&lt;b&gt;II. Reglas de negocio:&lt;/b&gt;&lt;/span&gt;&lt;/font&gt;&lt;div&gt;&lt;font face=&quot;Times New Roman&quot;&gt;&lt;span style=&quot;font-size: 16px;&quot;&gt;&lt;b&gt;....&lt;/b&gt;&lt;/span&gt;&lt;/font&gt;&lt;/div&gt;" style="text;html=1;align=center;verticalAlign=middle;whiteSpace=wrap;rounded=0;" parent="1" vertex="1">
          <mxGeometry x="330" y="1160" width="510" height="111" as="geometry" />
        </mxCell>
        <mxCell id="IM8bj27vjW2e1TcxEnKg-7" value="&lt;font face=&quot;Times New Roman&quot;&gt;&lt;span style=&quot;font-size: 16px;&quot;&gt;&lt;b&gt;III. Atributo calculable:&lt;/b&gt;&lt;/span&gt;&lt;/font&gt;&lt;div&gt;&lt;font face=&quot;Times New Roman&quot;&gt;&lt;span style=&quot;font-size: 16px;&quot;&gt;&lt;b&gt;...&lt;/b&gt;&lt;/span&gt;&lt;/font&gt;&lt;/div&gt;" style="text;html=1;align=center;verticalAlign=middle;whiteSpace=wrap;rounded=0;" parent="1" vertex="1">
          <mxGeometry x="340" y="1220" width="510" height="111" as="geometry" />
        </mxCell>
        <mxCell id="68dRZxDx_lQtc-Z4TrwH-7" value="" style="endArrow=none;dashed=1;html=1;rounded=0;entryX=0;entryY=0.5;entryDx=0;entryDy=0;" parent="1" target="dpizFBpJidmlaV7K1fqd-35" edge="1">
          <mxGeometry width="50" height="50" relative="1" as="geometry">
            <mxPoint x="720" y="640" as="sourcePoint" />
            <mxPoint x="810" y="600" as="targetPoint" />
          </mxGeometry>
        </mxCell>
        <mxCell id="IM8bj27vjW2e1TcxEnKg-8" value="&lt;font face=&quot;Times New Roman&quot;&gt;&lt;span style=&quot;font-size: 16px;&quot;&gt;&lt;b&gt;IV. Dominio de los atributos:&lt;/b&gt;&lt;/span&gt;&lt;/font&gt;&lt;div&gt;&lt;font face=&quot;Times New Roman&quot;&gt;&lt;span style=&quot;font-size: 16px;&quot;&gt;&lt;b&gt;....&lt;/b&gt;&lt;/span&gt;&lt;/font&gt;&lt;/div&gt;" style="text;html=1;align=center;verticalAlign=middle;whiteSpace=wrap;rounded=0;" parent="1" vertex="1">
          <mxGeometry x="350" y="1300" width="510" height="111" as="geometry" />
        </mxCell>
        <mxCell id="68dRZxDx_lQtc-Z4TrwH-5" value="" style="endArrow=none;html=1;rounded=0;entryX=0.354;entryY=1.011;entryDx=0;entryDy=0;entryPerimeter=0;" parent="1" target="lXtKiYIN07wwhuMebqhm-1" edge="1">
          <mxGeometry width="50" height="50" relative="1" as="geometry">
            <mxPoint x="719.58" y="790.83" as="sourcePoint" />
            <mxPoint x="710" y="600" as="targetPoint" />
          </mxGeometry>
        </mxCell>
        <mxCell id="68dRZxDx_lQtc-Z4TrwH-9" value="*" style="text;html=1;align=center;verticalAlign=middle;whiteSpace=wrap;rounded=0;" parent="1" vertex="1">
          <mxGeometry x="620" y="810" width="30" height="20" as="geometry" />
        </mxCell>
        <mxCell id="68dRZxDx_lQtc-Z4TrwH-8" value="*" style="text;html=1;align=center;verticalAlign=middle;whiteSpace=wrap;rounded=0;" parent="1" vertex="1">
          <mxGeometry x="305" y="568" width="30" height="20" as="geometry" />
        </mxCell>
        <mxCell id="68dRZxDx_lQtc-Z4TrwH-10" value="1" style="text;html=1;align=center;verticalAlign=middle;whiteSpace=wrap;rounded=0;" parent="1" vertex="1">
          <mxGeometry x="340" y="720" width="30" height="20" as="geometry" />
        </mxCell>
        <mxCell id="IM8bj27vjW2e1TcxEnKg-9" value="1" style="text;html=1;align=center;verticalAlign=middle;whiteSpace=wrap;rounded=0;" parent="1" vertex="1">
          <mxGeometry x="1010" y="830" width="30" height="20" as="geometry" />
        </mxCell>
        <mxCell id="IM8bj27vjW2e1TcxEnKg-10" value="*" style="text;html=1;align=center;verticalAlign=middle;whiteSpace=wrap;rounded=0;" parent="1" vertex="1">
          <mxGeometry x="760" y="810" width="90" height="60" as="geometry" />
        </mxCell>
        <mxCell id="7xDIrLAodDT-qSDH6kA_-3" value="" style="endArrow=none;html=1;rounded=0;exitX=0.75;exitY=0;exitDx=0;exitDy=0;entryX=1;entryY=0.5;entryDx=0;entryDy=0;" parent="1" source="agMcymQ5COdE-LydsrBo-77" target="agMcymQ5COdE-LydsrBo-61" edge="1">
          <mxGeometry width="50" height="50" relative="1" as="geometry">
            <mxPoint x="1400" y="457.5" as="sourcePoint" />
            <mxPoint x="1400" y="362.5" as="targetPoint" />
            <Array as="points">
              <mxPoint x="755" y="750" />
              <mxPoint x="980" y="750" />
              <mxPoint x="1210" y="750" />
              <mxPoint x="1210" y="341" />
            </Array>
          </mxGeometry>
        </mxCell>
        <mxCell id="7xDIrLAodDT-qSDH6kA_-4" value="1" style="text;html=1;align=center;verticalAlign=middle;whiteSpace=wrap;rounded=0;" parent="1" vertex="1">
          <mxGeometry x="1110" y="318" width="30" height="20" as="geometry" />
        </mxCell>
        <mxCell id="7xDIrLAodDT-qSDH6kA_-5" value="*" style="text;html=1;align=center;verticalAlign=middle;whiteSpace=wrap;rounded=0;" parent="1" vertex="1">
          <mxGeometry x="760" y="770" width="30" height="20" as="geometry" />
        </mxCell>
        <mxCell id="7xDIrLAodDT-qSDH6kA_-6" value="organiza&amp;gt;" style="text;html=1;align=center;verticalAlign=middle;whiteSpace=wrap;rounded=0;" parent="1" vertex="1">
          <mxGeometry x="1226" y="620" width="30" height="20" as="geometry" />
        </mxCell>
        <mxCell id="lXtKiYIN07wwhuMebqhm-3" value="" style="shape=note;whiteSpace=wrap;html=1;backgroundOutline=1;darkOpacity=0.05;" parent="1" vertex="1">
          <mxGeometry x="980" y="458" width="130" height="96" as="geometry" />
        </mxCell>
        <mxCell id="lXtKiYIN07wwhuMebqhm-4" value="" style="endArrow=none;dashed=1;html=1;rounded=0;entryX=0.5;entryY=0;entryDx=0;entryDy=0;exitX=0.532;exitY=1.002;exitDx=0;exitDy=0;exitPerimeter=0;entryPerimeter=0;" parent="1" source="lXtKiYIN07wwhuMebqhm-2" target="lXtKiYIN07wwhuMebqhm-3" edge="1">
          <mxGeometry width="50" height="50" relative="1" as="geometry">
            <mxPoint x="950" y="400" as="sourcePoint" />
            <mxPoint x="1070" y="401" as="targetPoint" />
          </mxGeometry>
        </mxCell>
        <mxCell id="lXtKiYIN07wwhuMebqhm-5" value="Atributo web opcional" style="text;html=1;align=center;verticalAlign=middle;whiteSpace=wrap;rounded=0;" parent="1" vertex="1">
          <mxGeometry x="1007.5" y="481.5" width="75" height="49" as="geometry" />
        </mxCell>
        <mxCell id="Nmh7_O1KkESDejtTiDmn-5" value="" style="endArrow=none;html=1;rounded=0;" edge="1" parent="1">
          <mxGeometry width="50" height="50" relative="1" as="geometry">
            <mxPoint x="900" y="1020" as="sourcePoint" />
            <mxPoint x="432" y="810" as="targetPoint" />
            <Array as="points">
              <mxPoint x="431.5" y="1020" />
            </Array>
          </mxGeometry>
        </mxCell>
        <mxCell id="Nmh7_O1KkESDejtTiDmn-6" value="" style="endArrow=none;html=1;rounded=0;shadow=1;" edge="1" parent="1">
          <mxGeometry width="50" height="50" relative="1" as="geometry">
            <mxPoint x="900" y="1020" as="sourcePoint" />
            <mxPoint x="899.5" y="736" as="targetPoint" />
          </mxGeometry>
        </mxCell>
        <mxCell id="Nmh7_O1KkESDejtTiDmn-9" value="*" style="text;html=1;align=center;verticalAlign=middle;whiteSpace=wrap;rounded=0;" vertex="1" parent="1">
          <mxGeometry x="425" y="810" width="30" height="20" as="geometry" />
        </mxCell>
        <mxCell id="Nmh7_O1KkESDejtTiDmn-10" value="*" style="text;html=1;align=center;verticalAlign=middle;whiteSpace=wrap;rounded=0;" vertex="1" parent="1">
          <mxGeometry x="890" y="735" width="30" height="20" as="geometry" />
        </mxCell>
      </root>
    </mxGraphModel>
  </diagram>
  <diagram name="DSS" id="Lmwg-wc6o2-wSDF67b4l">
    <mxGraphModel dx="2212" dy="789" grid="1" gridSize="10" guides="1" tooltips="1" connect="1" arrows="1" fold="1" page="1" pageScale="1" pageWidth="827" pageHeight="1169" math="0" shadow="0">
      <root>
        <mxCell id="7qbBtTqkFl1bNYgJkVoJ-0" />
        <mxCell id="7qbBtTqkFl1bNYgJkVoJ-1" parent="7qbBtTqkFl1bNYgJkVoJ-0" />
        <mxCell id="49NRNw4zJ_oeobkylHcL-40" value="" style="rounded=0;whiteSpace=wrap;html=1;fillColor=none;" parent="7qbBtTqkFl1bNYgJkVoJ-1" vertex="1">
          <mxGeometry x="160" y="120" width="880" height="1320" as="geometry" />
        </mxCell>
        <mxCell id="Qz5w-otgsnCUTVqj0kyE-0" value="" style="rounded=0;whiteSpace=wrap;html=1;fillColor=none;" parent="7qbBtTqkFl1bNYgJkVoJ-1" vertex="1">
          <mxGeometry x="4480" y="839.26" width="680" height="710.74" as="geometry" />
        </mxCell>
        <mxCell id="teg_wg2tHC0hfuOI6_LW-1" value="" style="rounded=0;whiteSpace=wrap;html=1;fillColor=none;" parent="7qbBtTqkFl1bNYgJkVoJ-1" vertex="1">
          <mxGeometry x="1380" y="600" width="840" height="730" as="geometry" />
        </mxCell>
        <mxCell id="teg_wg2tHC0hfuOI6_LW-26" value="" style="rounded=0;whiteSpace=wrap;html=1;fillColor=none;" parent="7qbBtTqkFl1bNYgJkVoJ-1" vertex="1">
          <mxGeometry x="1410" y="990" width="760" height="270" as="geometry" />
        </mxCell>
        <mxCell id="7qbBtTqkFl1bNYgJkVoJ-3" value="&lt;font face=&quot;Times New Roman&quot;&gt;&lt;span style=&quot;font-size: 16px;&quot;&gt;&lt;b&gt;Diagrama de Secuencia caso ...&lt;/b&gt;&lt;/span&gt;&lt;/font&gt;" style="text;html=1;align=center;verticalAlign=middle;whiteSpace=wrap;rounded=0;" parent="7qbBtTqkFl1bNYgJkVoJ-1" vertex="1">
          <mxGeometry x="367" width="460" height="110" as="geometry" />
        </mxCell>
        <mxCell id="8ZKeF6U2Utcj6JtyIclS-2" value="Alta de Usuario" style="rounded=0;whiteSpace=wrap;html=1;" parent="7qbBtTqkFl1bNYgJkVoJ-1" vertex="1">
          <mxGeometry x="160" y="120" width="160" height="80" as="geometry" />
        </mxCell>
        <mxCell id="8ZKeF6U2Utcj6JtyIclS-3" value="" style="shape=umlActor;verticalLabelPosition=bottom;verticalAlign=top;html=1;outlineConnect=0;" parent="7qbBtTqkFl1bNYgJkVoJ-1" vertex="1">
          <mxGeometry x="260" y="240" width="40" height="80" as="geometry" />
        </mxCell>
        <mxCell id="8ZKeF6U2Utcj6JtyIclS-6" value="&lt;font style=&quot;font-size: 22px;&quot;&gt;:SISTEMA&lt;/font&gt;" style="rounded=0;whiteSpace=wrap;html=1;" parent="7qbBtTqkFl1bNYgJkVoJ-1" vertex="1">
          <mxGeometry x="840" y="240" width="120" height="80" as="geometry" />
        </mxCell>
        <mxCell id="8ZKeF6U2Utcj6JtyIclS-7" value="" style="endArrow=classic;html=1;rounded=0;" parent="7qbBtTqkFl1bNYgJkVoJ-1" edge="1">
          <mxGeometry width="50" height="50" relative="1" as="geometry">
            <mxPoint x="300" y="400" as="sourcePoint" />
            <mxPoint x="900" y="400" as="targetPoint" />
          </mxGeometry>
        </mxCell>
        <mxCell id="8ZKeF6U2Utcj6JtyIclS-8" value="ingresarDatosUsuario(nombre: string, nickname:string, correo: string)" style="text;html=1;align=center;verticalAlign=middle;whiteSpace=wrap;rounded=0;" parent="7qbBtTqkFl1bNYgJkVoJ-1" vertex="1">
          <mxGeometry x="370" y="370" width="480" height="30" as="geometry" />
        </mxCell>
        <mxCell id="8ZKeF6U2Utcj6JtyIclS-4" value="" style="endArrow=none;dashed=1;html=1;rounded=0;" parent="7qbBtTqkFl1bNYgJkVoJ-1" edge="1">
          <mxGeometry width="50" height="50" relative="1" as="geometry">
            <mxPoint x="299.71967741935464" y="335" as="sourcePoint" />
            <mxPoint x="300" y="1410" as="targetPoint" />
          </mxGeometry>
        </mxCell>
        <mxCell id="8ZKeF6U2Utcj6JtyIclS-5" value="" style="endArrow=none;dashed=1;html=1;rounded=0;" parent="7qbBtTqkFl1bNYgJkVoJ-1" edge="1">
          <mxGeometry width="50" height="50" relative="1" as="geometry">
            <mxPoint x="900.1996774193547" y="335" as="sourcePoint" />
            <mxPoint x="900" y="1410" as="targetPoint" />
          </mxGeometry>
        </mxCell>
        <mxCell id="IpbybfyV0vX8cb9tNksv-4" value="" style="group" parent="7qbBtTqkFl1bNYgJkVoJ-1" vertex="1" connectable="0">
          <mxGeometry x="240" y="440" width="740" height="360" as="geometry" />
        </mxCell>
        <mxCell id="IpbybfyV0vX8cb9tNksv-3" value="" style="rounded=0;whiteSpace=wrap;html=1;fillColor=none;" parent="IpbybfyV0vX8cb9tNksv-4" vertex="1">
          <mxGeometry width="720" height="360" as="geometry" />
        </mxCell>
        <mxCell id="8ZKeF6U2Utcj6JtyIclS-9" value="LOOP" style="shape=card;whiteSpace=wrap;html=1;flipV=1;flipH=1;" parent="IpbybfyV0vX8cb9tNksv-4" vertex="1">
          <mxGeometry width="80" height="40" as="geometry" />
        </mxCell>
        <mxCell id="IpbybfyV0vX8cb9tNksv-5" value="[ (Existe nick o existe correo) || (NOT cancelado)]" style="text;html=1;align=center;verticalAlign=middle;whiteSpace=wrap;rounded=0;" parent="IpbybfyV0vX8cb9tNksv-4" vertex="1">
          <mxGeometry x="120" width="480" height="46.66666666666667" as="geometry" />
        </mxCell>
        <mxCell id="IpbybfyV0vX8cb9tNksv-6" value="" style="group" parent="IpbybfyV0vX8cb9tNksv-4" vertex="1" connectable="0">
          <mxGeometry x="20" y="80" width="720" height="240" as="geometry" />
        </mxCell>
        <mxCell id="IpbybfyV0vX8cb9tNksv-7" value="" style="rounded=0;whiteSpace=wrap;html=1;fillColor=none;" parent="IpbybfyV0vX8cb9tNksv-6" vertex="1">
          <mxGeometry width="680" height="240" as="geometry" />
        </mxCell>
        <mxCell id="IpbybfyV0vX8cb9tNksv-8" value="OPT" style="shape=card;whiteSpace=wrap;html=1;flipV=1;flipH=1;" parent="IpbybfyV0vX8cb9tNksv-6" vertex="1">
          <mxGeometry width="80" height="40" as="geometry" />
        </mxCell>
        <mxCell id="IpbybfyV0vX8cb9tNksv-9" value="[NOT quiere cancelar]" style="text;html=1;align=center;verticalAlign=middle;whiteSpace=wrap;rounded=0;" parent="IpbybfyV0vX8cb9tNksv-6" vertex="1">
          <mxGeometry x="100" width="480" height="40" as="geometry" />
        </mxCell>
        <mxCell id="IpbybfyV0vX8cb9tNksv-10" value="" style="endArrow=classic;html=1;rounded=0;" parent="IpbybfyV0vX8cb9tNksv-6" edge="1">
          <mxGeometry width="50" height="50" relative="1" as="geometry">
            <mxPoint x="40" y="90" as="sourcePoint" />
            <mxPoint x="640" y="90" as="targetPoint" />
          </mxGeometry>
        </mxCell>
        <mxCell id="IpbybfyV0vX8cb9tNksv-11" value="ingresarDatosUsuario(nombre: string, nickname:string, correo: string)" style="text;html=1;align=center;verticalAlign=middle;whiteSpace=wrap;rounded=0;" parent="IpbybfyV0vX8cb9tNksv-6" vertex="1">
          <mxGeometry x="110" y="60" width="480" height="30" as="geometry" />
        </mxCell>
        <mxCell id="49NRNw4zJ_oeobkylHcL-0" value="" style="endArrow=none;dashed=1;html=1;rounded=0;" parent="IpbybfyV0vX8cb9tNksv-6" edge="1">
          <mxGeometry width="50" height="50" relative="1" as="geometry">
            <mxPoint x="680" y="130" as="sourcePoint" />
            <mxPoint y="130" as="targetPoint" />
          </mxGeometry>
        </mxCell>
        <mxCell id="49NRNw4zJ_oeobkylHcL-2" value="cancelar()" style="text;html=1;align=center;verticalAlign=middle;whiteSpace=wrap;rounded=0;" parent="IpbybfyV0vX8cb9tNksv-6" vertex="1">
          <mxGeometry x="100" y="170" width="480" height="30" as="geometry" />
        </mxCell>
        <mxCell id="49NRNw4zJ_oeobkylHcL-1" value="" style="endArrow=classic;html=1;rounded=0;" parent="IpbybfyV0vX8cb9tNksv-6" edge="1">
          <mxGeometry width="50" height="50" relative="1" as="geometry">
            <mxPoint x="40" y="200" as="sourcePoint" />
            <mxPoint x="640" y="200" as="targetPoint" />
          </mxGeometry>
        </mxCell>
        <mxCell id="49NRNw4zJ_oeobkylHcL-4" value="" style="group" parent="7qbBtTqkFl1bNYgJkVoJ-1" connectable="0" vertex="1">
          <mxGeometry x="240" y="840" width="740" height="570" as="geometry" />
        </mxCell>
        <mxCell id="49NRNw4zJ_oeobkylHcL-5" value="" style="rounded=0;whiteSpace=wrap;html=1;fillColor=none;" parent="49NRNw4zJ_oeobkylHcL-4" vertex="1">
          <mxGeometry width="720" height="560" as="geometry" />
        </mxCell>
        <mxCell id="49NRNw4zJ_oeobkylHcL-6" value="OPT" style="shape=card;whiteSpace=wrap;html=1;flipV=1;flipH=1;" parent="49NRNw4zJ_oeobkylHcL-4" vertex="1">
          <mxGeometry width="80" height="40" as="geometry" />
        </mxCell>
        <mxCell id="49NRNw4zJ_oeobkylHcL-7" value="[NOT cancelado]" style="text;html=1;align=center;verticalAlign=middle;whiteSpace=wrap;rounded=0;" parent="49NRNw4zJ_oeobkylHcL-4" vertex="1">
          <mxGeometry x="120" width="480" height="46.66666666666667" as="geometry" />
        </mxCell>
        <mxCell id="49NRNw4zJ_oeobkylHcL-36" value="" style="endArrow=classic;html=1;rounded=0;" parent="49NRNw4zJ_oeobkylHcL-4" edge="1">
          <mxGeometry width="50" height="50" relative="1" as="geometry">
            <mxPoint x="60" y="520" as="sourcePoint" />
            <mxPoint x="660" y="520" as="targetPoint" />
          </mxGeometry>
        </mxCell>
        <mxCell id="49NRNw4zJ_oeobkylHcL-37" value="AltaUsuario()" style="text;html=1;align=center;verticalAlign=middle;whiteSpace=wrap;rounded=0;" parent="49NRNw4zJ_oeobkylHcL-4" vertex="1">
          <mxGeometry x="120" y="490" width="480" height="30" as="geometry" />
        </mxCell>
        <mxCell id="49NRNw4zJ_oeobkylHcL-17" value="" style="group" parent="7qbBtTqkFl1bNYgJkVoJ-1" connectable="0" vertex="1">
          <mxGeometry x="260" y="900" width="720" height="480" as="geometry" />
        </mxCell>
        <mxCell id="49NRNw4zJ_oeobkylHcL-18" value="" style="rounded=0;whiteSpace=wrap;html=1;fillColor=none;" parent="49NRNw4zJ_oeobkylHcL-17" vertex="1">
          <mxGeometry width="680" height="410" as="geometry" />
        </mxCell>
        <mxCell id="49NRNw4zJ_oeobkylHcL-19" value="ALT" style="shape=card;whiteSpace=wrap;html=1;flipV=1;flipH=1;" parent="49NRNw4zJ_oeobkylHcL-17" vertex="1">
          <mxGeometry width="80" height="40" as="geometry" />
        </mxCell>
        <mxCell id="49NRNw4zJ_oeobkylHcL-20" value="[Es organizador]" style="text;html=1;align=center;verticalAlign=middle;whiteSpace=wrap;rounded=0;" parent="49NRNw4zJ_oeobkylHcL-17" vertex="1">
          <mxGeometry x="100" width="480" height="40" as="geometry" />
        </mxCell>
        <mxCell id="49NRNw4zJ_oeobkylHcL-21" value="" style="endArrow=classic;html=1;rounded=0;" parent="49NRNw4zJ_oeobkylHcL-17" edge="1">
          <mxGeometry width="50" height="50" relative="1" as="geometry">
            <mxPoint x="40" y="90" as="sourcePoint" />
            <mxPoint x="640" y="90" as="targetPoint" />
          </mxGeometry>
        </mxCell>
        <mxCell id="49NRNw4zJ_oeobkylHcL-22" value="ingresarDatosOrganizador(Descripcion: string)" style="text;html=1;align=center;verticalAlign=middle;whiteSpace=wrap;rounded=0;" parent="49NRNw4zJ_oeobkylHcL-17" vertex="1">
          <mxGeometry x="110" y="60" width="480" height="30" as="geometry" />
        </mxCell>
        <mxCell id="49NRNw4zJ_oeobkylHcL-27" value="" style="rounded=0;whiteSpace=wrap;html=1;fillColor=none;" parent="49NRNw4zJ_oeobkylHcL-17" vertex="1">
          <mxGeometry x="20" y="130" width="640" height="120" as="geometry" />
        </mxCell>
        <mxCell id="49NRNw4zJ_oeobkylHcL-28" value="[Quiere agregar sitio web]" style="text;html=1;align=center;verticalAlign=middle;whiteSpace=wrap;rounded=0;" parent="49NRNw4zJ_oeobkylHcL-17" vertex="1">
          <mxGeometry x="100" y="130" width="480" height="40" as="geometry" />
        </mxCell>
        <mxCell id="49NRNw4zJ_oeobkylHcL-25" value="" style="endArrow=classic;html=1;rounded=0;" parent="49NRNw4zJ_oeobkylHcL-17" edge="1">
          <mxGeometry width="50" height="50" relative="1" as="geometry">
            <mxPoint x="40" y="210" as="sourcePoint" />
            <mxPoint x="640" y="210" as="targetPoint" />
          </mxGeometry>
        </mxCell>
        <mxCell id="49NRNw4zJ_oeobkylHcL-24" value="IngresarSitioWeb(URL: string)" style="text;html=1;align=center;verticalAlign=middle;whiteSpace=wrap;rounded=0;" parent="49NRNw4zJ_oeobkylHcL-17" vertex="1">
          <mxGeometry x="100" y="180" width="480" height="30" as="geometry" />
        </mxCell>
        <mxCell id="49NRNw4zJ_oeobkylHcL-23" value="" style="endArrow=none;dashed=1;html=1;rounded=0;" parent="49NRNw4zJ_oeobkylHcL-17" edge="1">
          <mxGeometry width="50" height="50" relative="1" as="geometry">
            <mxPoint x="680" y="290" as="sourcePoint" />
            <mxPoint y="290" as="targetPoint" />
          </mxGeometry>
        </mxCell>
        <mxCell id="49NRNw4zJ_oeobkylHcL-29" value="[Es asistente]" style="text;html=1;align=center;verticalAlign=middle;whiteSpace=wrap;rounded=0;" parent="49NRNw4zJ_oeobkylHcL-17" vertex="1">
          <mxGeometry x="100" y="290" width="480" height="40" as="geometry" />
        </mxCell>
        <mxCell id="49NRNw4zJ_oeobkylHcL-34" value="" style="endArrow=classic;html=1;rounded=0;" parent="49NRNw4zJ_oeobkylHcL-17" edge="1">
          <mxGeometry width="50" height="50" relative="1" as="geometry">
            <mxPoint x="40" y="370" as="sourcePoint" />
            <mxPoint x="640" y="370" as="targetPoint" />
          </mxGeometry>
        </mxCell>
        <mxCell id="49NRNw4zJ_oeobkylHcL-35" value="ingresarDatosAsistente(apellido:string, fecha: Date)" style="text;html=1;align=center;verticalAlign=middle;whiteSpace=wrap;rounded=0;" parent="49NRNw4zJ_oeobkylHcL-17" vertex="1">
          <mxGeometry x="110" y="340" width="480" height="30" as="geometry" />
        </mxCell>
        <mxCell id="49NRNw4zJ_oeobkylHcL-38" value="OPT" style="shape=card;whiteSpace=wrap;html=1;flipV=1;flipH=1;" parent="49NRNw4zJ_oeobkylHcL-17" vertex="1">
          <mxGeometry x="20" y="130" width="80" height="50" as="geometry" />
        </mxCell>
        <mxCell id="teg_wg2tHC0hfuOI6_LW-2" value="Alta de Tipo de Registro" style="rounded=0;whiteSpace=wrap;html=1;" parent="7qbBtTqkFl1bNYgJkVoJ-1" vertex="1">
          <mxGeometry x="1380" y="600" width="160" height="80" as="geometry" />
        </mxCell>
        <mxCell id="teg_wg2tHC0hfuOI6_LW-3" value="" style="shape=umlActor;verticalLabelPosition=bottom;verticalAlign=top;html=1;outlineConnect=0;" parent="7qbBtTqkFl1bNYgJkVoJ-1" vertex="1">
          <mxGeometry x="1480" y="700" width="40" height="70" as="geometry" />
        </mxCell>
        <mxCell id="teg_wg2tHC0hfuOI6_LW-4" value="" style="endArrow=none;dashed=1;html=1;rounded=0;entryX=0.144;entryY=0.999;entryDx=0;entryDy=0;entryPerimeter=0;" parent="7qbBtTqkFl1bNYgJkVoJ-1" source="teg_wg2tHC0hfuOI6_LW-3" target="teg_wg2tHC0hfuOI6_LW-1" edge="1">
          <mxGeometry width="50" height="50" relative="1" as="geometry">
            <mxPoint x="1501" y="850" as="sourcePoint" />
            <mxPoint x="1500" y="1380" as="targetPoint" />
          </mxGeometry>
        </mxCell>
        <mxCell id="teg_wg2tHC0hfuOI6_LW-5" value="" style="endArrow=none;dashed=1;html=1;rounded=0;entryX=0.858;entryY=0.999;entryDx=0;entryDy=0;entryPerimeter=0;exitX=0.5;exitY=1;exitDx=0;exitDy=0;" parent="7qbBtTqkFl1bNYgJkVoJ-1" source="teg_wg2tHC0hfuOI6_LW-6" target="teg_wg2tHC0hfuOI6_LW-1" edge="1">
          <mxGeometry width="50" height="50" relative="1" as="geometry">
            <mxPoint x="2100.199677419355" y="850" as="sourcePoint" />
            <mxPoint x="2100" y="1250" as="targetPoint" />
          </mxGeometry>
        </mxCell>
        <mxCell id="teg_wg2tHC0hfuOI6_LW-6" value="&lt;font style=&quot;font-size: 22px;&quot;&gt;:SISTEMA&lt;/font&gt;" style="rounded=0;whiteSpace=wrap;html=1;" parent="7qbBtTqkFl1bNYgJkVoJ-1" vertex="1">
          <mxGeometry x="2040" y="690" width="120" height="80" as="geometry" />
        </mxCell>
        <mxCell id="teg_wg2tHC0hfuOI6_LW-8" value="altaTRegistro(nombreEdicion: string, nombreTipo: string, descripcion: string, costo: int, cupo:int)" style="text;html=1;align=center;verticalAlign=middle;whiteSpace=wrap;rounded=0;" parent="7qbBtTqkFl1bNYgJkVoJ-1" vertex="1">
          <mxGeometry x="1490" y="919.26" width="600" height="30" as="geometry" />
        </mxCell>
        <mxCell id="teg_wg2tHC0hfuOI6_LW-9" value="" style="rounded=0;whiteSpace=wrap;html=1;fillColor=none;" parent="7qbBtTqkFl1bNYgJkVoJ-1" vertex="1">
          <mxGeometry x="1460" y="1050" width="680" height="80" as="geometry" />
        </mxCell>
        <mxCell id="teg_wg2tHC0hfuOI6_LW-10" value="ALT" style="shape=card;whiteSpace=wrap;html=1;flipV=1;flipH=1;" parent="7qbBtTqkFl1bNYgJkVoJ-1" vertex="1">
          <mxGeometry x="1460" y="1050" width="80" height="40" as="geometry" />
        </mxCell>
        <mxCell id="teg_wg2tHC0hfuOI6_LW-12" value="" style="endArrow=classic;html=1;rounded=0;" parent="7qbBtTqkFl1bNYgJkVoJ-1" edge="1">
          <mxGeometry width="50" height="50" relative="1" as="geometry">
            <mxPoint x="1500" y="1110" as="sourcePoint" />
            <mxPoint x="2100" y="1110" as="targetPoint" />
          </mxGeometry>
        </mxCell>
        <mxCell id="teg_wg2tHC0hfuOI6_LW-14" value="" style="rounded=0;whiteSpace=wrap;html=1;fillColor=none;" parent="7qbBtTqkFl1bNYgJkVoJ-1" vertex="1">
          <mxGeometry x="1460" y="1130" width="680" height="80" as="geometry" />
        </mxCell>
        <mxCell id="teg_wg2tHC0hfuOI6_LW-16" value="" style="endArrow=classic;html=1;rounded=0;" parent="7qbBtTqkFl1bNYgJkVoJ-1" edge="1">
          <mxGeometry width="50" height="50" relative="1" as="geometry">
            <mxPoint x="1500" y="1187" as="sourcePoint" />
            <mxPoint x="2100" y="1187" as="targetPoint" />
          </mxGeometry>
        </mxCell>
        <mxCell id="teg_wg2tHC0hfuOI6_LW-17" value="cancelar()" style="text;html=1;align=center;verticalAlign=middle;whiteSpace=wrap;rounded=0;" parent="7qbBtTqkFl1bNYgJkVoJ-1" vertex="1">
          <mxGeometry x="1700" y="1157" width="200" height="30" as="geometry" />
        </mxCell>
        <mxCell id="teg_wg2tHC0hfuOI6_LW-18" value="" style="endArrow=classic;html=1;rounded=0;" parent="7qbBtTqkFl1bNYgJkVoJ-1" edge="1">
          <mxGeometry width="50" height="50" relative="1" as="geometry">
            <mxPoint x="1500" y="890" as="sourcePoint" />
            <mxPoint x="2100" y="890" as="targetPoint" />
          </mxGeometry>
        </mxCell>
        <mxCell id="teg_wg2tHC0hfuOI6_LW-19" value="&lt;span&gt;Ediciones := seleccionarEvento(nombre: string) : &lt;span&gt;&lt;font style=&quot;&quot;&gt;set (DTEdicion&lt;/font&gt;)&lt;/span&gt;&lt;/span&gt;" style="text;html=1;align=center;verticalAlign=middle;whiteSpace=wrap;rounded=0;" parent="7qbBtTqkFl1bNYgJkVoJ-1" vertex="1">
          <mxGeometry x="1575" y="860" width="450" height="30" as="geometry" />
        </mxCell>
        <mxCell id="teg_wg2tHC0hfuOI6_LW-20" value="" style="endArrow=classic;html=1;rounded=0;" parent="7qbBtTqkFl1bNYgJkVoJ-1" edge="1">
          <mxGeometry width="50" height="50" relative="1" as="geometry">
            <mxPoint x="1500" y="949" as="sourcePoint" />
            <mxPoint x="2100" y="949" as="targetPoint" />
          </mxGeometry>
        </mxCell>
        <mxCell id="teg_wg2tHC0hfuOI6_LW-27" value="LOOP" style="shape=card;whiteSpace=wrap;html=1;flipV=1;flipH=1;" parent="7qbBtTqkFl1bNYgJkVoJ-1" vertex="1">
          <mxGeometry x="1410" y="990" width="80" height="40" as="geometry" />
        </mxCell>
        <mxCell id="teg_wg2tHC0hfuOI6_LW-28" value="[ya existe nombre y no cancelado]" style="text;html=1;align=center;verticalAlign=middle;whiteSpace=wrap;rounded=0;" parent="7qbBtTqkFl1bNYgJkVoJ-1" vertex="1">
          <mxGeometry x="1510" y="990" width="200" height="30" as="geometry" />
        </mxCell>
        <mxCell id="tk-jczBtiN_mezLg24A4-0" value="" style="rounded=0;whiteSpace=wrap;html=1;fillColor=none;movable=1;resizable=1;rotatable=1;deletable=1;editable=1;locked=0;connectable=1;" parent="7qbBtTqkFl1bNYgJkVoJ-1" vertex="1">
          <mxGeometry x="2570" y="460" width="880" height="1250" as="geometry" />
        </mxCell>
        <mxCell id="tk-jczBtiN_mezLg24A4-2" value="Registro a Edición de Evento" style="rounded=0;whiteSpace=wrap;html=1;" parent="7qbBtTqkFl1bNYgJkVoJ-1" vertex="1">
          <mxGeometry x="2570" y="460" width="160" height="80" as="geometry" />
        </mxCell>
        <mxCell id="tk-jczBtiN_mezLg24A4-3" value="" style="shape=umlActor;verticalLabelPosition=bottom;verticalAlign=top;html=1;outlineConnect=0;" parent="7qbBtTqkFl1bNYgJkVoJ-1" vertex="1">
          <mxGeometry x="2670" y="580" width="40" height="80" as="geometry" />
        </mxCell>
        <mxCell id="tk-jczBtiN_mezLg24A4-4" value="&lt;font style=&quot;font-size: 22px;&quot;&gt;:SISTEMA&lt;/font&gt;" style="rounded=0;whiteSpace=wrap;html=1;" parent="7qbBtTqkFl1bNYgJkVoJ-1" vertex="1">
          <mxGeometry x="3250" y="580" width="120" height="80" as="geometry" />
        </mxCell>
        <mxCell id="tk-jczBtiN_mezLg24A4-5" value="" style="endArrow=classic;html=1;rounded=0;" parent="7qbBtTqkFl1bNYgJkVoJ-1" edge="1">
          <mxGeometry width="50" height="50" relative="1" as="geometry">
            <mxPoint x="2710" y="740" as="sourcePoint" />
            <mxPoint x="3310" y="740" as="targetPoint" />
          </mxGeometry>
        </mxCell>
        <mxCell id="tk-jczBtiN_mezLg24A4-6" value="registroAEdicionEvento(): set&amp;lt;DTEvento&amp;gt;" style="text;html=1;align=center;verticalAlign=middle;whiteSpace=wrap;rounded=0;" parent="7qbBtTqkFl1bNYgJkVoJ-1" vertex="1">
          <mxGeometry x="2780" y="710" width="480" height="30" as="geometry" />
        </mxCell>
        <mxCell id="tk-jczBtiN_mezLg24A4-7" value="" style="endArrow=none;dashed=1;html=1;rounded=0;entryX=0.159;entryY=1;entryDx=0;entryDy=0;entryPerimeter=0;" parent="7qbBtTqkFl1bNYgJkVoJ-1" target="tk-jczBtiN_mezLg24A4-0" edge="1">
          <mxGeometry width="50" height="50" relative="1" as="geometry">
            <mxPoint x="2709.7196774193544" y="675" as="sourcePoint" />
            <mxPoint x="2710" y="1590" as="targetPoint" />
          </mxGeometry>
        </mxCell>
        <mxCell id="tk-jczBtiN_mezLg24A4-8" value="" style="endArrow=none;dashed=1;html=1;rounded=0;entryX=0.841;entryY=1;entryDx=0;entryDy=0;entryPerimeter=0;" parent="7qbBtTqkFl1bNYgJkVoJ-1" target="tk-jczBtiN_mezLg24A4-0" edge="1">
          <mxGeometry width="50" height="50" relative="1" as="geometry">
            <mxPoint x="3310.199677419355" y="675" as="sourcePoint" />
            <mxPoint x="3310" y="1590" as="targetPoint" />
          </mxGeometry>
        </mxCell>
        <mxCell id="tk-jczBtiN_mezLg24A4-9" value="" style="rounded=0;whiteSpace=wrap;html=1;fillColor=none;" parent="7qbBtTqkFl1bNYgJkVoJ-1" vertex="1">
          <mxGeometry x="2680" y="1130" width="670" height="470" as="geometry" />
        </mxCell>
        <mxCell id="tk-jczBtiN_mezLg24A4-10" value="[Si se alcanzó el cupo o ya estaba registrado en la edición]" style="text;html=1;align=center;verticalAlign=middle;whiteSpace=wrap;rounded=0;" parent="7qbBtTqkFl1bNYgJkVoJ-1" vertex="1">
          <mxGeometry x="2760" y="1130" width="480" height="40" as="geometry" />
        </mxCell>
        <mxCell id="tk-jczBtiN_mezLg24A4-11" value="OPT" style="shape=card;whiteSpace=wrap;html=1;flipV=1;flipH=1;" parent="7qbBtTqkFl1bNYgJkVoJ-1" vertex="1">
          <mxGeometry x="2680" y="1130" width="80" height="50" as="geometry" />
        </mxCell>
        <mxCell id="tk-jczBtiN_mezLg24A4-12" value="" style="endArrow=classic;html=1;rounded=0;" parent="7qbBtTqkFl1bNYgJkVoJ-1" edge="1">
          <mxGeometry width="50" height="50" relative="1" as="geometry">
            <mxPoint x="2710" y="830" as="sourcePoint" />
            <mxPoint x="3310" y="830" as="targetPoint" />
          </mxGeometry>
        </mxCell>
        <mxCell id="tk-jczBtiN_mezLg24A4-13" value="seleccionEvento(DTEvento): set&amp;lt;DTEdicion&amp;gt;" style="text;html=1;align=center;verticalAlign=middle;whiteSpace=wrap;rounded=0;" parent="7qbBtTqkFl1bNYgJkVoJ-1" vertex="1">
          <mxGeometry x="2780" y="800" width="480" height="30" as="geometry" />
        </mxCell>
        <mxCell id="tk-jczBtiN_mezLg24A4-14" value="" style="endArrow=classic;html=1;rounded=0;" parent="7qbBtTqkFl1bNYgJkVoJ-1" edge="1">
          <mxGeometry width="50" height="50" relative="1" as="geometry">
            <mxPoint x="2710" y="920" as="sourcePoint" />
            <mxPoint x="3310" y="920" as="targetPoint" />
          </mxGeometry>
        </mxCell>
        <mxCell id="tk-jczBtiN_mezLg24A4-15" value="seleccionEdicion(DTEdicion): set&amp;lt;DTTipoRegistro&amp;gt;" style="text;html=1;align=center;verticalAlign=middle;whiteSpace=wrap;rounded=0;" parent="7qbBtTqkFl1bNYgJkVoJ-1" vertex="1">
          <mxGeometry x="2780" y="890" width="480" height="30" as="geometry" />
        </mxCell>
        <mxCell id="tk-jczBtiN_mezLg24A4-16" value="" style="endArrow=classic;html=1;rounded=0;" parent="7qbBtTqkFl1bNYgJkVoJ-1" edge="1">
          <mxGeometry width="50" height="50" relative="1" as="geometry">
            <mxPoint x="2710" y="1000" as="sourcePoint" />
            <mxPoint x="3310" y="1000" as="targetPoint" />
          </mxGeometry>
        </mxCell>
        <mxCell id="tk-jczBtiN_mezLg24A4-17" value="listarAsistentes(DTEdicion): set&amp;lt;DTUsuario&amp;gt;" style="text;html=1;align=center;verticalAlign=middle;whiteSpace=wrap;rounded=0;" parent="7qbBtTqkFl1bNYgJkVoJ-1" vertex="1">
          <mxGeometry x="2780" y="970" width="480" height="30" as="geometry" />
        </mxCell>
        <mxCell id="tk-jczBtiN_mezLg24A4-18" value="" style="rounded=0;whiteSpace=wrap;html=1;fillColor=none;" parent="7qbBtTqkFl1bNYgJkVoJ-1" vertex="1">
          <mxGeometry x="2687" y="1240" width="640" height="120" as="geometry" />
        </mxCell>
        <mxCell id="tk-jczBtiN_mezLg24A4-19" value="[Si quiere editar]" style="text;html=1;align=center;verticalAlign=middle;whiteSpace=wrap;rounded=0;" parent="7qbBtTqkFl1bNYgJkVoJ-1" vertex="1">
          <mxGeometry x="2767" y="1240" width="480" height="40" as="geometry" />
        </mxCell>
        <mxCell id="tk-jczBtiN_mezLg24A4-20" value="seleccionAsistente(DTUsuario, DTTipoRegistro)" style="text;html=1;align=center;verticalAlign=middle;whiteSpace=wrap;rounded=0;" parent="7qbBtTqkFl1bNYgJkVoJ-1" vertex="1">
          <mxGeometry x="2767" y="1290" width="480" height="30" as="geometry" />
        </mxCell>
        <mxCell id="tk-jczBtiN_mezLg24A4-21" value="OPT" style="shape=card;whiteSpace=wrap;html=1;flipV=1;flipH=1;" parent="7qbBtTqkFl1bNYgJkVoJ-1" vertex="1">
          <mxGeometry x="2687" y="1240" width="80" height="50" as="geometry" />
        </mxCell>
        <mxCell id="tk-jczBtiN_mezLg24A4-22" value="" style="rounded=0;whiteSpace=wrap;html=1;fillColor=none;" parent="7qbBtTqkFl1bNYgJkVoJ-1" vertex="1">
          <mxGeometry x="2687" y="1440" width="640" height="120" as="geometry" />
        </mxCell>
        <mxCell id="tk-jczBtiN_mezLg24A4-23" value="[Si quiere cancelar]" style="text;html=1;align=center;verticalAlign=middle;whiteSpace=wrap;rounded=0;" parent="7qbBtTqkFl1bNYgJkVoJ-1" vertex="1">
          <mxGeometry x="2767" y="1440" width="480" height="40" as="geometry" />
        </mxCell>
        <mxCell id="tk-jczBtiN_mezLg24A4-24" value="cancelar()" style="text;html=1;align=center;verticalAlign=middle;whiteSpace=wrap;rounded=0;" parent="7qbBtTqkFl1bNYgJkVoJ-1" vertex="1">
          <mxGeometry x="2767" y="1500" width="480" height="30" as="geometry" />
        </mxCell>
        <mxCell id="tk-jczBtiN_mezLg24A4-25" value="OPT" style="shape=card;whiteSpace=wrap;html=1;flipV=1;flipH=1;" parent="7qbBtTqkFl1bNYgJkVoJ-1" vertex="1">
          <mxGeometry x="2687" y="1440" width="80" height="50" as="geometry" />
        </mxCell>
        <mxCell id="tk-jczBtiN_mezLg24A4-26" value="" style="endArrow=classic;html=1;rounded=0;" parent="7qbBtTqkFl1bNYgJkVoJ-1" edge="1">
          <mxGeometry width="50" height="50" relative="1" as="geometry">
            <mxPoint x="2710" y="1320" as="sourcePoint" />
            <mxPoint x="3310" y="1320" as="targetPoint" />
          </mxGeometry>
        </mxCell>
        <mxCell id="tk-jczBtiN_mezLg24A4-27" value="" style="endArrow=classic;html=1;rounded=0;" parent="7qbBtTqkFl1bNYgJkVoJ-1" edge="1">
          <mxGeometry width="50" height="50" relative="1" as="geometry">
            <mxPoint x="2710" y="1530" as="sourcePoint" />
            <mxPoint x="3310" y="1530" as="targetPoint" />
          </mxGeometry>
        </mxCell>
        <mxCell id="YyRqyJtoXqwfgO2FueTv-0" value="Modficar Datos de Usuario" style="shape=umlFrame;whiteSpace=wrap;html=1;pointerEvents=0;width=210;height=30;" parent="7qbBtTqkFl1bNYgJkVoJ-1" vertex="1">
          <mxGeometry x="3555" y="470" width="580" height="520" as="geometry" />
        </mxCell>
        <mxCell id="YyRqyJtoXqwfgO2FueTv-1" value="" style="shape=umlLifeline;perimeter=lifelinePerimeter;whiteSpace=wrap;html=1;container=1;dropTarget=0;collapsible=0;recursiveResize=0;outlineConnect=0;portConstraint=eastwest;newEdgeStyle={&quot;curved&quot;:0,&quot;rounded&quot;:0};participant=umlActor;" parent="7qbBtTqkFl1bNYgJkVoJ-1" vertex="1">
          <mxGeometry x="3615" y="518" width="20" height="472" as="geometry" />
        </mxCell>
        <mxCell id="YyRqyJtoXqwfgO2FueTv-2" value=":SISTEMA" style="shape=umlLifeline;perimeter=lifelinePerimeter;whiteSpace=wrap;html=1;container=1;dropTarget=0;collapsible=0;recursiveResize=0;outlineConnect=0;portConstraint=eastwest;newEdgeStyle={&quot;curved&quot;:0,&quot;rounded&quot;:0};" parent="7qbBtTqkFl1bNYgJkVoJ-1" vertex="1">
          <mxGeometry x="3965" y="518" width="100" height="472" as="geometry" />
        </mxCell>
        <mxCell id="YyRqyJtoXqwfgO2FueTv-3" value="" style="endArrow=classic;html=1;rounded=0;" parent="7qbBtTqkFl1bNYgJkVoJ-1" edge="1">
          <mxGeometry width="50" height="50" relative="1" as="geometry">
            <mxPoint x="3625" y="610" as="sourcePoint" />
            <mxPoint x="4014.5" y="610" as="targetPoint" />
            <Array as="points">
              <mxPoint x="3825" y="610" />
            </Array>
          </mxGeometry>
        </mxCell>
        <mxCell id="YyRqyJtoXqwfgO2FueTv-4" value="listarUsuarios() : set&amp;lt;String&amp;gt;" style="text;html=1;align=center;verticalAlign=middle;resizable=0;points=[];autosize=1;strokeColor=none;fillColor=none;" parent="7qbBtTqkFl1bNYgJkVoJ-1" vertex="1">
          <mxGeometry x="3715" y="580" width="180" height="30" as="geometry" />
        </mxCell>
        <mxCell id="YyRqyJtoXqwfgO2FueTv-5" value="" style="endArrow=classic;html=1;rounded=0;" parent="7qbBtTqkFl1bNYgJkVoJ-1" edge="1">
          <mxGeometry width="50" height="50" relative="1" as="geometry">
            <mxPoint x="3625" y="660" as="sourcePoint" />
            <mxPoint x="4014.5" y="660" as="targetPoint" />
            <Array as="points" />
          </mxGeometry>
        </mxCell>
        <mxCell id="YyRqyJtoXqwfgO2FueTv-6" value="seleccionarUsuario(nick : String) : DTUsuario" style="text;html=1;align=center;verticalAlign=middle;resizable=0;points=[];autosize=1;strokeColor=none;fillColor=none;" parent="7qbBtTqkFl1bNYgJkVoJ-1" vertex="1">
          <mxGeometry x="3675" y="630" width="260" height="30" as="geometry" />
        </mxCell>
        <mxCell id="YyRqyJtoXqwfgO2FueTv-7" value="opt" style="shape=umlFrame;whiteSpace=wrap;html=1;pointerEvents=0;" parent="7qbBtTqkFl1bNYgJkVoJ-1" vertex="1">
          <mxGeometry x="3585" y="690" width="480" height="200" as="geometry" />
        </mxCell>
        <mxCell id="YyRqyJtoXqwfgO2FueTv-8" value="[es organizador]" style="text;html=1;align=center;verticalAlign=middle;resizable=0;points=[];autosize=1;strokeColor=none;fillColor=none;" parent="7qbBtTqkFl1bNYgJkVoJ-1" vertex="1">
          <mxGeometry x="3750" y="710" width="110" height="30" as="geometry" />
        </mxCell>
        <mxCell id="YyRqyJtoXqwfgO2FueTv-9" value="" style="endArrow=classic;html=1;rounded=0;" parent="7qbBtTqkFl1bNYgJkVoJ-1" target="YyRqyJtoXqwfgO2FueTv-2" edge="1">
          <mxGeometry width="50" height="50" relative="1" as="geometry">
            <mxPoint x="3625" y="770" as="sourcePoint" />
            <mxPoint x="3675" y="720" as="targetPoint" />
          </mxGeometry>
        </mxCell>
        <mxCell id="YyRqyJtoXqwfgO2FueTv-10" value="modificarDatosOrganizdor()" style="text;html=1;align=center;verticalAlign=middle;resizable=0;points=[];autosize=1;strokeColor=none;fillColor=none;" parent="7qbBtTqkFl1bNYgJkVoJ-1" vertex="1">
          <mxGeometry x="3720" y="748" width="170" height="30" as="geometry" />
        </mxCell>
        <mxCell id="YyRqyJtoXqwfgO2FueTv-11" value="" style="endArrow=none;dashed=1;html=1;dashPattern=1 3;strokeWidth=2;rounded=0;entryX=0.996;entryY=0.563;entryDx=0;entryDy=0;entryPerimeter=0;" parent="7qbBtTqkFl1bNYgJkVoJ-1" edge="1">
          <mxGeometry width="50" height="50" relative="1" as="geometry">
            <mxPoint x="3586.92" y="800" as="sourcePoint" />
            <mxPoint x="4065" y="801.49" as="targetPoint" />
            <Array as="points">
              <mxPoint x="3836.92" y="801" />
            </Array>
          </mxGeometry>
        </mxCell>
        <mxCell id="YyRqyJtoXqwfgO2FueTv-12" value="[es asistente]" style="text;html=1;align=center;verticalAlign=middle;resizable=0;points=[];autosize=1;strokeColor=none;fillColor=none;" parent="7qbBtTqkFl1bNYgJkVoJ-1" vertex="1">
          <mxGeometry x="3760" y="810" width="90" height="30" as="geometry" />
        </mxCell>
        <mxCell id="YyRqyJtoXqwfgO2FueTv-13" value="" style="endArrow=classic;html=1;rounded=0;" parent="7qbBtTqkFl1bNYgJkVoJ-1" target="YyRqyJtoXqwfgO2FueTv-2" edge="1">
          <mxGeometry width="50" height="50" relative="1" as="geometry">
            <mxPoint x="3625" y="865" as="sourcePoint" />
            <mxPoint x="3675" y="815" as="targetPoint" />
          </mxGeometry>
        </mxCell>
        <mxCell id="YyRqyJtoXqwfgO2FueTv-14" value="modificarDatosAsistente()" style="text;html=1;align=center;verticalAlign=middle;resizable=0;points=[];autosize=1;strokeColor=none;fillColor=none;" parent="7qbBtTqkFl1bNYgJkVoJ-1" vertex="1">
          <mxGeometry x="3725" y="840" width="160" height="30" as="geometry" />
        </mxCell>
        <mxCell id="YyRqyJtoXqwfgO2FueTv-15" value="actualizarDatos()" style="text;html=1;align=center;verticalAlign=middle;resizable=0;points=[];autosize=1;strokeColor=none;fillColor=none;" parent="7qbBtTqkFl1bNYgJkVoJ-1" vertex="1">
          <mxGeometry x="3749" y="910" width="110" height="30" as="geometry" />
        </mxCell>
        <mxCell id="YyRqyJtoXqwfgO2FueTv-16" value="" style="endArrow=classic;html=1;rounded=0;" parent="7qbBtTqkFl1bNYgJkVoJ-1" target="YyRqyJtoXqwfgO2FueTv-2" edge="1">
          <mxGeometry width="50" height="50" relative="1" as="geometry">
            <mxPoint x="3625" y="940" as="sourcePoint" />
            <mxPoint x="3675" y="890" as="targetPoint" />
          </mxGeometry>
        </mxCell>
        <mxCell id="qNHLHv0pWLpzSs8XGbOx-3" value="[ya existe nombre]" style="text;html=1;align=center;verticalAlign=middle;whiteSpace=wrap;rounded=0;" parent="7qbBtTqkFl1bNYgJkVoJ-1" vertex="1">
          <mxGeometry x="1510" y="1050" width="200" height="30" as="geometry" />
        </mxCell>
        <mxCell id="sEd_sDmhvxONiex8W0TN-0" value="registroEdicionEvento()" style="text;html=1;align=center;verticalAlign=middle;whiteSpace=wrap;rounded=0;" parent="7qbBtTqkFl1bNYgJkVoJ-1" vertex="1">
          <mxGeometry x="2767" y="1630" width="480" height="30" as="geometry" />
        </mxCell>
        <mxCell id="sEd_sDmhvxONiex8W0TN-1" value="" style="endArrow=classic;html=1;rounded=0;" parent="7qbBtTqkFl1bNYgJkVoJ-1" edge="1">
          <mxGeometry width="50" height="50" relative="1" as="geometry">
            <mxPoint x="2710" y="1660" as="sourcePoint" />
            <mxPoint x="3310" y="1660" as="targetPoint" />
          </mxGeometry>
        </mxCell>
        <mxCell id="sEd_sDmhvxONiex8W0TN-2" value="seleccionAsistente(DTUsuario, DTTipoRegistro)" style="text;html=1;align=center;verticalAlign=middle;whiteSpace=wrap;rounded=0;" parent="7qbBtTqkFl1bNYgJkVoJ-1" vertex="1">
          <mxGeometry x="2767" y="1054.66" width="480" height="30" as="geometry" />
        </mxCell>
        <mxCell id="sEd_sDmhvxONiex8W0TN-3" value="" style="endArrow=classic;html=1;rounded=0;" parent="7qbBtTqkFl1bNYgJkVoJ-1" edge="1">
          <mxGeometry width="50" height="50" relative="1" as="geometry">
            <mxPoint x="2710" y="1084.66" as="sourcePoint" />
            <mxPoint x="3310" y="1084.66" as="targetPoint" />
          </mxGeometry>
        </mxCell>
        <mxCell id="JlLTyqUh8ok_YJshWgfQ-0" value="No cambian el nickname o el email." style="shape=note;whiteSpace=wrap;html=1;backgroundOutline=1;darkOpacity=0.05;" parent="7qbBtTqkFl1bNYgJkVoJ-1" vertex="1">
          <mxGeometry x="4190" y="720" width="111" height="96" as="geometry" />
        </mxCell>
        <mxCell id="JlLTyqUh8ok_YJshWgfQ-1" value="" style="endArrow=none;dashed=1;html=1;dashPattern=1 3;strokeWidth=2;rounded=0;entryX=-0.023;entryY=0.719;entryDx=0;entryDy=0;entryPerimeter=0;" parent="7qbBtTqkFl1bNYgJkVoJ-1" edge="1">
          <mxGeometry width="50" height="50" relative="1" as="geometry">
            <mxPoint x="4017.55" y="865.49" as="sourcePoint" />
            <mxPoint x="4189.997" y="784.5139999999999" as="targetPoint" />
            <Array as="points">
              <mxPoint x="4122.55" y="815.49" />
            </Array>
          </mxGeometry>
        </mxCell>
        <mxCell id="JlLTyqUh8ok_YJshWgfQ-2" value="" style="endArrow=none;dashed=1;html=1;dashPattern=1 3;strokeWidth=2;rounded=0;entryX=0;entryY=0.5;entryDx=0;entryDy=0;entryPerimeter=0;" parent="7qbBtTqkFl1bNYgJkVoJ-1" target="JlLTyqUh8ok_YJshWgfQ-0" edge="1">
          <mxGeometry width="50" height="50" relative="1" as="geometry">
            <mxPoint x="4015" y="770" as="sourcePoint" />
            <mxPoint x="4065" y="720" as="targetPoint" />
          </mxGeometry>
        </mxCell>
        <mxCell id="Qz5w-otgsnCUTVqj0kyE-1" value="Consulta de usuarios" style="rounded=0;whiteSpace=wrap;html=1;" parent="7qbBtTqkFl1bNYgJkVoJ-1" vertex="1">
          <mxGeometry x="4440" y="479.26" width="160" height="80" as="geometry" />
        </mxCell>
        <mxCell id="Qz5w-otgsnCUTVqj0kyE-2" value="" style="shape=umlActor;verticalLabelPosition=bottom;verticalAlign=top;html=1;outlineConnect=0;" parent="7qbBtTqkFl1bNYgJkVoJ-1" vertex="1">
          <mxGeometry x="4500" y="609.26" width="40" height="70" as="geometry" />
        </mxCell>
        <mxCell id="Qz5w-otgsnCUTVqj0kyE-3" value="" style="endArrow=none;dashed=1;html=1;rounded=0;entryX=0.058;entryY=1.005;entryDx=0;entryDy=0;entryPerimeter=0;" parent="7qbBtTqkFl1bNYgJkVoJ-1" target="Qz5w-otgsnCUTVqj0kyE-0" edge="1">
          <mxGeometry width="50" height="50" relative="1" as="geometry">
            <mxPoint x="4519.719677419354" y="679.26" as="sourcePoint" />
            <mxPoint x="4520" y="1490" as="targetPoint" />
          </mxGeometry>
        </mxCell>
        <mxCell id="Qz5w-otgsnCUTVqj0kyE-4" value="" style="endArrow=none;dashed=1;html=1;rounded=0;entryX=0.941;entryY=1.004;entryDx=0;entryDy=0;entryPerimeter=0;" parent="7qbBtTqkFl1bNYgJkVoJ-1" target="Qz5w-otgsnCUTVqj0kyE-0" edge="1">
          <mxGeometry width="50" height="50" relative="1" as="geometry">
            <mxPoint x="5120.199677419355" y="679.26" as="sourcePoint" />
            <mxPoint x="5120" y="1490" as="targetPoint" />
          </mxGeometry>
        </mxCell>
        <mxCell id="Qz5w-otgsnCUTVqj0kyE-5" value="&lt;font style=&quot;font-size: 22px;&quot;&gt;:SISTEMA&lt;/font&gt;" style="rounded=0;whiteSpace=wrap;html=1;" parent="7qbBtTqkFl1bNYgJkVoJ-1" vertex="1">
          <mxGeometry x="5060" y="599.26" width="120" height="80" as="geometry" />
        </mxCell>
        <mxCell id="Qz5w-otgsnCUTVqj0kyE-6" value="ALT" style="shape=card;whiteSpace=wrap;html=1;flipV=1;flipH=1;" parent="7qbBtTqkFl1bNYgJkVoJ-1" vertex="1">
          <mxGeometry x="4480" y="839.26" width="80" height="40" as="geometry" />
        </mxCell>
        <mxCell id="Qz5w-otgsnCUTVqj0kyE-7" value="[Es organizador]" style="text;html=1;align=center;verticalAlign=middle;whiteSpace=wrap;rounded=0;" parent="7qbBtTqkFl1bNYgJkVoJ-1" vertex="1">
          <mxGeometry x="4642" y="840" width="358" height="40" as="geometry" />
        </mxCell>
        <mxCell id="Qz5w-otgsnCUTVqj0kyE-8" value="" style="endArrow=classic;html=1;rounded=0;" parent="7qbBtTqkFl1bNYgJkVoJ-1" edge="1">
          <mxGeometry width="50" height="50" relative="1" as="geometry">
            <mxPoint x="4520" y="919.26" as="sourcePoint" />
            <mxPoint x="5120" y="919.26" as="targetPoint" />
          </mxGeometry>
        </mxCell>
        <mxCell id="Qz5w-otgsnCUTVqj0kyE-9" value="mostrarDatosOrganizador(): DTOrganizador" style="text;html=1;align=center;verticalAlign=middle;whiteSpace=wrap;rounded=0;" parent="7qbBtTqkFl1bNYgJkVoJ-1" vertex="1">
          <mxGeometry x="4680" y="889.26" width="320" height="30" as="geometry" />
        </mxCell>
        <mxCell id="Qz5w-otgsnCUTVqj0kyE-10" value="" style="endArrow=classic;html=1;rounded=0;" parent="7qbBtTqkFl1bNYgJkVoJ-1" edge="1">
          <mxGeometry width="50" height="50" relative="1" as="geometry">
            <mxPoint x="4520" y="759.26" as="sourcePoint" />
            <mxPoint x="5120" y="759.26" as="targetPoint" />
          </mxGeometry>
        </mxCell>
        <mxCell id="Qz5w-otgsnCUTVqj0kyE-11" value="&lt;span&gt;ListaUsuarios := listarUsuarios() : &lt;span&gt;set of DTUsuario&lt;/span&gt;&lt;/span&gt;" style="text;html=1;align=center;verticalAlign=middle;whiteSpace=wrap;rounded=0;" parent="7qbBtTqkFl1bNYgJkVoJ-1" vertex="1">
          <mxGeometry x="4560" y="729.26" width="520" height="30" as="geometry" />
        </mxCell>
        <mxCell id="Qz5w-otgsnCUTVqj0kyE-12" value="" style="endArrow=classic;html=1;rounded=0;" parent="7qbBtTqkFl1bNYgJkVoJ-1" edge="1">
          <mxGeometry width="50" height="50" relative="1" as="geometry">
            <mxPoint x="4520" y="798.26" as="sourcePoint" />
            <mxPoint x="5120" y="798.26" as="targetPoint" />
          </mxGeometry>
        </mxCell>
        <mxCell id="Qz5w-otgsnCUTVqj0kyE-13" value="Usuario := seleccionar(nick: string)" style="text;html=1;align=center;verticalAlign=middle;whiteSpace=wrap;rounded=0;" parent="7qbBtTqkFl1bNYgJkVoJ-1" vertex="1">
          <mxGeometry x="4690" y="768.26" width="280" height="30" as="geometry" />
        </mxCell>
        <mxCell id="Qz5w-otgsnCUTVqj0kyE-14" value="" style="endArrow=none;dashed=1;html=1;rounded=0;" parent="7qbBtTqkFl1bNYgJkVoJ-1" edge="1">
          <mxGeometry width="50" height="50" relative="1" as="geometry">
            <mxPoint x="4480" y="1159.21" as="sourcePoint" />
            <mxPoint x="5160" y="1159.21" as="targetPoint" />
          </mxGeometry>
        </mxCell>
        <mxCell id="Qz5w-otgsnCUTVqj0kyE-15" value="" style="endArrow=classic;html=1;rounded=0;" parent="7qbBtTqkFl1bNYgJkVoJ-1" edge="1">
          <mxGeometry width="50" height="50" relative="1" as="geometry">
            <mxPoint x="4520" y="1239.1" as="sourcePoint" />
            <mxPoint x="5120" y="1239.1" as="targetPoint" />
          </mxGeometry>
        </mxCell>
        <mxCell id="Qz5w-otgsnCUTVqj0kyE-16" value="mostrarDatosAsistente(): DTAsistente" style="text;html=1;align=center;verticalAlign=middle;whiteSpace=wrap;rounded=0;" parent="7qbBtTqkFl1bNYgJkVoJ-1" vertex="1">
          <mxGeometry x="4640" y="1199.93" width="360" height="30" as="geometry" />
        </mxCell>
        <mxCell id="Qz5w-otgsnCUTVqj0kyE-17" value="[Es asistente]" style="text;html=1;align=center;verticalAlign=middle;whiteSpace=wrap;rounded=0;" parent="7qbBtTqkFl1bNYgJkVoJ-1" vertex="1">
          <mxGeometry x="4640" y="1159.93" width="360" height="40" as="geometry" />
        </mxCell>
        <mxCell id="77dSBwmhkCQ_guMRImUb-0" value="" style="endArrow=classic;html=1;rounded=0;" parent="7qbBtTqkFl1bNYgJkVoJ-1" edge="1">
          <mxGeometry width="50" height="50" relative="1" as="geometry">
            <mxPoint x="1500" y="828.26" as="sourcePoint" />
            <mxPoint x="2100" y="828.26" as="targetPoint" />
          </mxGeometry>
        </mxCell>
        <mxCell id="77dSBwmhkCQ_guMRImUb-1" value="&lt;span&gt;Eventos := listarEventos() : &lt;span&gt;&lt;font style=&quot;&quot;&gt;set (DTEvento&lt;/font&gt;)&lt;/span&gt;&lt;/span&gt;" style="text;html=1;align=center;verticalAlign=middle;whiteSpace=wrap;rounded=0;" parent="7qbBtTqkFl1bNYgJkVoJ-1" vertex="1">
          <mxGeometry x="1575" y="798.26" width="450" height="30" as="geometry" />
        </mxCell>
        <mxCell id="H6Z-Ubcro6L7Hvld54TX-0" value="" style="rounded=0;whiteSpace=wrap;html=1;fillColor=none;" parent="7qbBtTqkFl1bNYgJkVoJ-1" vertex="1">
          <mxGeometry x="4440" y="479.26" width="760" height="1120.74" as="geometry" />
        </mxCell>
        <mxCell id="LXTz505atY7gQhZD2d-h-0" value="" style="endArrow=classic;html=1;rounded=0;" parent="7qbBtTqkFl1bNYgJkVoJ-1" edge="1">
          <mxGeometry width="50" height="50" relative="1" as="geometry">
            <mxPoint x="4520" y="960" as="sourcePoint" />
            <mxPoint x="5120" y="960" as="targetPoint" />
          </mxGeometry>
        </mxCell>
        <mxCell id="LXTz505atY7gQhZD2d-h-1" value="mostrarEdicionesOrganizador(): set of DTEdicion" style="text;html=1;align=center;verticalAlign=middle;whiteSpace=wrap;rounded=0;" parent="7qbBtTqkFl1bNYgJkVoJ-1" vertex="1">
          <mxGeometry x="4680" y="930" width="320" height="30" as="geometry" />
        </mxCell>
        <mxCell id="NBlKh45_OlATIK3Z5xYP-0" value="" style="endArrow=classic;html=1;rounded=0;" parent="7qbBtTqkFl1bNYgJkVoJ-1" edge="1">
          <mxGeometry width="50" height="50" relative="1" as="geometry">
            <mxPoint x="4520" y="1319.17" as="sourcePoint" />
            <mxPoint x="5120" y="1319.17" as="targetPoint" />
          </mxGeometry>
        </mxCell>
        <mxCell id="NBlKh45_OlATIK3Z5xYP-1" value="mostrarRegistrosAsistente(): set of DTRegistro" style="text;html=1;align=center;verticalAlign=middle;whiteSpace=wrap;rounded=0;" parent="7qbBtTqkFl1bNYgJkVoJ-1" vertex="1">
          <mxGeometry x="4640" y="1280" width="360" height="30" as="geometry" />
        </mxCell>
        <mxCell id="pShGtfWYftZ7QK0vPd37-0" value="opt" style="shape=umlFrame;whiteSpace=wrap;html=1;pointerEvents=0;" parent="7qbBtTqkFl1bNYgJkVoJ-1" vertex="1">
          <mxGeometry x="4500" y="970" width="640" height="180" as="geometry" />
        </mxCell>
        <mxCell id="pShGtfWYftZ7QK0vPd37-1" value="[Quiere consultar]" style="text;html=1;align=center;verticalAlign=middle;whiteSpace=wrap;rounded=0;" parent="7qbBtTqkFl1bNYgJkVoJ-1" vertex="1">
          <mxGeometry x="4651" y="965" width="358" height="40" as="geometry" />
        </mxCell>
        <mxCell id="pShGtfWYftZ7QK0vPd37-2" value="opt" style="shape=umlFrame;whiteSpace=wrap;html=1;pointerEvents=0;" parent="7qbBtTqkFl1bNYgJkVoJ-1" vertex="1">
          <mxGeometry x="4500" y="1340" width="640" height="170" as="geometry" />
        </mxCell>
        <mxCell id="pShGtfWYftZ7QK0vPd37-3" value="[Quiere consultar]" style="text;html=1;align=center;verticalAlign=middle;whiteSpace=wrap;rounded=0;" parent="7qbBtTqkFl1bNYgJkVoJ-1" vertex="1">
          <mxGeometry x="4641" y="1340" width="358" height="40" as="geometry" />
        </mxCell>
        <mxCell id="leWqsnRC-uC8aT2ec5zd-0" value="ref" style="shape=umlFrame;whiteSpace=wrap;html=1;pointerEvents=0;" parent="7qbBtTqkFl1bNYgJkVoJ-1" vertex="1">
          <mxGeometry x="4510" y="1390" width="620" height="100" as="geometry" />
        </mxCell>
        <mxCell id="leWqsnRC-uC8aT2ec5zd-1" value="" style="endArrow=classic;html=1;rounded=0;" parent="7qbBtTqkFl1bNYgJkVoJ-1" edge="1">
          <mxGeometry width="50" height="50" relative="1" as="geometry">
            <mxPoint x="4520" y="1459.08" as="sourcePoint" />
            <mxPoint x="5120" y="1459.08" as="targetPoint" />
          </mxGeometry>
        </mxCell>
        <mxCell id="leWqsnRC-uC8aT2ec5zd-2" value="ConsultaDeRegistro" style="text;html=1;align=center;verticalAlign=middle;whiteSpace=wrap;rounded=0;" parent="7qbBtTqkFl1bNYgJkVoJ-1" vertex="1">
          <mxGeometry x="4641" y="1425" width="360" height="30" as="geometry" />
        </mxCell>
        <mxCell id="leWqsnRC-uC8aT2ec5zd-3" value="ref" style="shape=umlFrame;whiteSpace=wrap;html=1;pointerEvents=0;" parent="7qbBtTqkFl1bNYgJkVoJ-1" vertex="1">
          <mxGeometry x="4510" y="1010" width="620" height="100" as="geometry" />
        </mxCell>
        <mxCell id="leWqsnRC-uC8aT2ec5zd-4" value="" style="endArrow=classic;html=1;rounded=0;" parent="7qbBtTqkFl1bNYgJkVoJ-1" edge="1">
          <mxGeometry width="50" height="50" relative="1" as="geometry">
            <mxPoint x="4520" y="1079.08" as="sourcePoint" />
            <mxPoint x="5120" y="1079.08" as="targetPoint" />
          </mxGeometry>
        </mxCell>
        <mxCell id="leWqsnRC-uC8aT2ec5zd-5" value="ConsultaEdicionDeEvento" style="text;html=1;align=center;verticalAlign=middle;whiteSpace=wrap;rounded=0;" parent="7qbBtTqkFl1bNYgJkVoJ-1" vertex="1">
          <mxGeometry x="4641" y="1045" width="360" height="30" as="geometry" />
        </mxCell>
        <mxCell id="d6yPybzIPCYp1rz6-2Ag-0" value="" style="shape=umlActor;verticalLabelPosition=bottom;verticalAlign=top;html=1;outlineConnect=0;" parent="7qbBtTqkFl1bNYgJkVoJ-1" vertex="1">
          <mxGeometry x="-683" y="243.26" width="40" height="80" as="geometry" />
        </mxCell>
        <mxCell id="d6yPybzIPCYp1rz6-2Ag-1" value="&lt;font style=&quot;font-size: 22px;&quot;&gt;:SISTEMA&lt;/font&gt;" style="rounded=0;whiteSpace=wrap;html=1;" parent="7qbBtTqkFl1bNYgJkVoJ-1" vertex="1">
          <mxGeometry x="-103" y="243.26" width="120" height="80" as="geometry" />
        </mxCell>
        <mxCell id="d6yPybzIPCYp1rz6-2Ag-2" value="" style="endArrow=none;dashed=1;html=1;rounded=0;entryX=0.128;entryY=0.999;entryDx=0;entryDy=0;entryPerimeter=0;" parent="7qbBtTqkFl1bNYgJkVoJ-1" target="d6yPybzIPCYp1rz6-2Ag-5" edge="1">
          <mxGeometry width="50" height="50" relative="1" as="geometry">
            <mxPoint x="-643.2803225806454" y="338.26" as="sourcePoint" />
            <mxPoint x="-643" y="1413.26" as="targetPoint" />
          </mxGeometry>
        </mxCell>
        <mxCell id="d6yPybzIPCYp1rz6-2Ag-3" value="" style="endArrow=none;dashed=1;html=1;rounded=0;entryX=0.918;entryY=1.002;entryDx=0;entryDy=0;entryPerimeter=0;" parent="7qbBtTqkFl1bNYgJkVoJ-1" target="d6yPybzIPCYp1rz6-2Ag-5" edge="1">
          <mxGeometry width="50" height="50" relative="1" as="geometry">
            <mxPoint x="-42.80032258064534" y="338.26" as="sourcePoint" />
            <mxPoint x="-43" y="1413.26" as="targetPoint" />
          </mxGeometry>
        </mxCell>
        <mxCell id="d6yPybzIPCYp1rz6-2Ag-4" value="" style="group" parent="7qbBtTqkFl1bNYgJkVoJ-1" connectable="0" vertex="1">
          <mxGeometry x="-740" y="360" width="780" height="1210" as="geometry" />
        </mxCell>
        <mxCell id="d6yPybzIPCYp1rz6-2Ag-5" value="" style="rounded=0;whiteSpace=wrap;html=1;fillColor=none;" parent="d6yPybzIPCYp1rz6-2Ag-4" vertex="1">
          <mxGeometry x="1.08" y="-20" width="758.92" height="1210" as="geometry" />
        </mxCell>
        <mxCell id="d6yPybzIPCYp1rz6-2Ag-6" value="[Es organizdor]" style="text;html=1;align=center;verticalAlign=middle;whiteSpace=wrap;rounded=0;" parent="d6yPybzIPCYp1rz6-2Ag-4" vertex="1">
          <mxGeometry x="319.46" y="5" width="120" height="30" as="geometry" />
        </mxCell>
        <mxCell id="d6yPybzIPCYp1rz6-2Ag-7" value="" style="endArrow=classic;html=1;rounded=0;exitX=0.132;exitY=0.097;exitDx=0;exitDy=0;exitPerimeter=0;entryX=0.922;entryY=0.097;entryDx=0;entryDy=0;entryPerimeter=0;" parent="d6yPybzIPCYp1rz6-2Ag-4" edge="1">
          <mxGeometry width="50" height="50" relative="1" as="geometry">
            <mxPoint x="96.68743999999987" y="99.17000000000012" as="sourcePoint" />
            <mxPoint x="696.2342400000003" y="99.17000000000012" as="targetPoint" />
          </mxGeometry>
        </mxCell>
        <mxCell id="d6yPybzIPCYp1rz6-2Ag-8" value="altaOrganizador(nombre: string, nickname:string, correo: string, descripcion: string)" style="text;html=1;align=center;verticalAlign=middle;whiteSpace=wrap;rounded=0;" parent="d6yPybzIPCYp1rz6-2Ag-4" vertex="1">
          <mxGeometry x="160" y="70" width="460" height="30" as="geometry" />
        </mxCell>
        <mxCell id="d6yPybzIPCYp1rz6-2Ag-9" value="" style="group" parent="d6yPybzIPCYp1rz6-2Ag-4" vertex="1" connectable="0">
          <mxGeometry x="19.999999999999957" y="120" width="740" height="360" as="geometry" />
        </mxCell>
        <mxCell id="d6yPybzIPCYp1rz6-2Ag-10" value="" style="rounded=0;whiteSpace=wrap;html=1;fillColor=none;" parent="d6yPybzIPCYp1rz6-2Ag-9" vertex="1">
          <mxGeometry width="720" height="360" as="geometry" />
        </mxCell>
        <mxCell id="d6yPybzIPCYp1rz6-2Ag-11" value="LOOP" style="shape=card;whiteSpace=wrap;html=1;flipV=1;flipH=1;" parent="d6yPybzIPCYp1rz6-2Ag-9" vertex="1">
          <mxGeometry width="80" height="40" as="geometry" />
        </mxCell>
        <mxCell id="d6yPybzIPCYp1rz6-2Ag-12" value="[ (Existe nick o existe correo) || (NOT cancelado)]" style="text;html=1;align=center;verticalAlign=middle;whiteSpace=wrap;rounded=0;" parent="d6yPybzIPCYp1rz6-2Ag-9" vertex="1">
          <mxGeometry x="130" y="-3.33" width="480" height="46.66666666666667" as="geometry" />
        </mxCell>
        <mxCell id="d6yPybzIPCYp1rz6-2Ag-13" value="" style="endArrow=classic;html=1;rounded=0;exitX=0.132;exitY=0.097;exitDx=0;exitDy=0;exitPerimeter=0;entryX=0.922;entryY=0.097;entryDx=0;entryDy=0;entryPerimeter=0;" parent="d6yPybzIPCYp1rz6-2Ag-9" edge="1">
          <mxGeometry width="50" height="50" relative="1" as="geometry">
            <mxPoint x="78.08" y="150" as="sourcePoint" />
            <mxPoint x="678.08" y="150" as="targetPoint" />
          </mxGeometry>
        </mxCell>
        <mxCell id="d6yPybzIPCYp1rz6-2Ag-14" value="altaOrganizador(nombre: string, nickname:string, correo: string, descripcion: string)" style="text;html=1;align=center;verticalAlign=middle;whiteSpace=wrap;rounded=0;" parent="d6yPybzIPCYp1rz6-2Ag-9" vertex="1">
          <mxGeometry x="140.00000000000003" y="120" width="460" height="30" as="geometry" />
        </mxCell>
        <mxCell id="d6yPybzIPCYp1rz6-2Ag-15" value="" style="swimlane;startSize=0;" parent="d6yPybzIPCYp1rz6-2Ag-9" vertex="1">
          <mxGeometry x="20" y="60" width="680" height="260" as="geometry" />
        </mxCell>
        <mxCell id="d6yPybzIPCYp1rz6-2Ag-16" value="[Cambia nombre o nick]" style="text;html=1;align=center;verticalAlign=middle;whiteSpace=wrap;rounded=0;" parent="d6yPybzIPCYp1rz6-2Ag-15" vertex="1">
          <mxGeometry x="265.54" y="5" width="148.92" height="30" as="geometry" />
        </mxCell>
        <mxCell id="d6yPybzIPCYp1rz6-2Ag-17" value="ALT" style="shape=card;whiteSpace=wrap;html=1;flipV=1;flipH=1;" parent="d6yPybzIPCYp1rz6-2Ag-9" vertex="1">
          <mxGeometry x="20" y="60" width="80" height="40" as="geometry" />
        </mxCell>
        <mxCell id="d6yPybzIPCYp1rz6-2Ag-18" value="" style="endArrow=none;dashed=1;html=1;rounded=0;exitX=0;exitY=0.5;exitDx=0;exitDy=0;entryX=1;entryY=0.5;entryDx=0;entryDy=0;" parent="d6yPybzIPCYp1rz6-2Ag-9" source="d6yPybzIPCYp1rz6-2Ag-15" target="d6yPybzIPCYp1rz6-2Ag-15" edge="1">
          <mxGeometry width="50" height="50" relative="1" as="geometry">
            <mxPoint x="141.08000000000004" y="210" as="sourcePoint" />
            <mxPoint x="191.08000000000004" y="160" as="targetPoint" />
          </mxGeometry>
        </mxCell>
        <mxCell id="d6yPybzIPCYp1rz6-2Ag-19" value="" style="endArrow=classic;html=1;rounded=0;exitX=0.132;exitY=0.097;exitDx=0;exitDy=0;exitPerimeter=0;entryX=0.922;entryY=0.097;entryDx=0;entryDy=0;entryPerimeter=0;" parent="d6yPybzIPCYp1rz6-2Ag-9" edge="1">
          <mxGeometry width="50" height="50" relative="1" as="geometry">
            <mxPoint x="77.08000000000004" y="270" as="sourcePoint" />
            <mxPoint x="677.08" y="270" as="targetPoint" />
          </mxGeometry>
        </mxCell>
        <mxCell id="d6yPybzIPCYp1rz6-2Ag-20" value="cancelar()" style="text;html=1;align=center;verticalAlign=middle;whiteSpace=wrap;rounded=0;" parent="d6yPybzIPCYp1rz6-2Ag-9" vertex="1">
          <mxGeometry x="130.00000000000006" y="240" width="460" height="30" as="geometry" />
        </mxCell>
        <mxCell id="d6yPybzIPCYp1rz6-2Ag-21" value="[Cancela]" style="text;html=1;align=center;verticalAlign=middle;whiteSpace=wrap;rounded=0;" parent="d6yPybzIPCYp1rz6-2Ag-9" vertex="1">
          <mxGeometry x="285.54" y="200" width="148.92" height="30" as="geometry" />
        </mxCell>
        <mxCell id="d6yPybzIPCYp1rz6-2Ag-22" value="" style="endArrow=classic;html=1;rounded=0;exitX=0.132;exitY=0.097;exitDx=0;exitDy=0;exitPerimeter=0;entryX=0.922;entryY=0.097;entryDx=0;entryDy=0;entryPerimeter=0;" parent="d6yPybzIPCYp1rz6-2Ag-4" edge="1">
          <mxGeometry width="50" height="50" relative="1" as="geometry">
            <mxPoint x="96" y="580" as="sourcePoint" />
            <mxPoint x="696" y="580" as="targetPoint" />
          </mxGeometry>
        </mxCell>
        <mxCell id="d6yPybzIPCYp1rz6-2Ag-23" value="agregaWeb(URL: string, nickname: string)" style="text;html=1;align=center;verticalAlign=middle;whiteSpace=wrap;rounded=0;" parent="d6yPybzIPCYp1rz6-2Ag-4" vertex="1">
          <mxGeometry x="167" y="550" width="460" height="30" as="geometry" />
        </mxCell>
        <mxCell id="d6yPybzIPCYp1rz6-2Ag-24" value="OPT" style="shape=card;whiteSpace=wrap;html=1;flipV=1;flipH=1;" parent="d6yPybzIPCYp1rz6-2Ag-4" vertex="1">
          <mxGeometry x="18.91999999999996" y="510" width="80" height="40" as="geometry" />
        </mxCell>
        <mxCell id="d6yPybzIPCYp1rz6-2Ag-25" value="[Quiere agregar web]" style="text;html=1;align=center;verticalAlign=middle;whiteSpace=wrap;rounded=0;" parent="d6yPybzIPCYp1rz6-2Ag-4" vertex="1">
          <mxGeometry x="321.99999999999994" y="520" width="148.92" height="30" as="geometry" />
        </mxCell>
        <mxCell id="d6yPybzIPCYp1rz6-2Ag-26" value="" style="endArrow=none;dashed=1;html=1;rounded=0;" parent="d6yPybzIPCYp1rz6-2Ag-4" edge="1">
          <mxGeometry width="50" height="50" relative="1" as="geometry">
            <mxPoint y="661" as="sourcePoint" />
            <mxPoint x="760" y="660" as="targetPoint" />
          </mxGeometry>
        </mxCell>
        <mxCell id="d6yPybzIPCYp1rz6-2Ag-27" value="[Es asistente]" style="text;html=1;align=center;verticalAlign=middle;whiteSpace=wrap;rounded=0;" parent="d6yPybzIPCYp1rz6-2Ag-4" vertex="1">
          <mxGeometry x="330" y="670" width="120" height="30" as="geometry" />
        </mxCell>
        <mxCell id="d6yPybzIPCYp1rz6-2Ag-28" value="" style="endArrow=classic;html=1;rounded=0;exitX=0.132;exitY=0.097;exitDx=0;exitDy=0;exitPerimeter=0;entryX=0.922;entryY=0.097;entryDx=0;entryDy=0;entryPerimeter=0;" parent="d6yPybzIPCYp1rz6-2Ag-4" edge="1">
          <mxGeometry width="50" height="50" relative="1" as="geometry">
            <mxPoint x="96" y="740" as="sourcePoint" />
            <mxPoint x="696" y="740" as="targetPoint" />
          </mxGeometry>
        </mxCell>
        <mxCell id="d6yPybzIPCYp1rz6-2Ag-29" value="altaAsistente(nombre: string, nickname:string, correo: string, apellido: string, FechaNac: date)" style="text;html=1;align=center;verticalAlign=middle;whiteSpace=wrap;rounded=0;" parent="d6yPybzIPCYp1rz6-2Ag-4" vertex="1">
          <mxGeometry x="137.26999999999998" y="710" width="505.46" height="30" as="geometry" />
        </mxCell>
        <mxCell id="d6yPybzIPCYp1rz6-2Ag-30" value="" style="group" parent="d6yPybzIPCYp1rz6-2Ag-4" vertex="1" connectable="0">
          <mxGeometry x="20" y="760" width="740" height="360" as="geometry" />
        </mxCell>
        <mxCell id="d6yPybzIPCYp1rz6-2Ag-31" value="" style="rounded=0;whiteSpace=wrap;html=1;fillColor=none;" parent="d6yPybzIPCYp1rz6-2Ag-30" vertex="1">
          <mxGeometry width="720" height="360" as="geometry" />
        </mxCell>
        <mxCell id="d6yPybzIPCYp1rz6-2Ag-32" value="LOOP" style="shape=card;whiteSpace=wrap;html=1;flipV=1;flipH=1;" parent="d6yPybzIPCYp1rz6-2Ag-30" vertex="1">
          <mxGeometry width="80" height="40" as="geometry" />
        </mxCell>
        <mxCell id="d6yPybzIPCYp1rz6-2Ag-33" value="[ (Existe nick o existe correo) || (NOT cancelado)]" style="text;html=1;align=center;verticalAlign=middle;whiteSpace=wrap;rounded=0;" parent="d6yPybzIPCYp1rz6-2Ag-30" vertex="1">
          <mxGeometry x="130" y="-3.33" width="480" height="46.66666666666667" as="geometry" />
        </mxCell>
        <mxCell id="d6yPybzIPCYp1rz6-2Ag-34" value="" style="endArrow=classic;html=1;rounded=0;exitX=0.132;exitY=0.097;exitDx=0;exitDy=0;exitPerimeter=0;entryX=0.922;entryY=0.097;entryDx=0;entryDy=0;entryPerimeter=0;" parent="d6yPybzIPCYp1rz6-2Ag-30" edge="1">
          <mxGeometry width="50" height="50" relative="1" as="geometry">
            <mxPoint x="78.08" y="150" as="sourcePoint" />
            <mxPoint x="678.08" y="150" as="targetPoint" />
          </mxGeometry>
        </mxCell>
        <mxCell id="d6yPybzIPCYp1rz6-2Ag-35" value="" style="swimlane;startSize=0;" parent="d6yPybzIPCYp1rz6-2Ag-30" vertex="1">
          <mxGeometry x="20" y="60" width="680" height="260" as="geometry" />
        </mxCell>
        <mxCell id="d6yPybzIPCYp1rz6-2Ag-36" value="[Cambia nombre o nick]" style="text;html=1;align=center;verticalAlign=middle;whiteSpace=wrap;rounded=0;" parent="d6yPybzIPCYp1rz6-2Ag-35" vertex="1">
          <mxGeometry x="265.54" y="5" width="148.92" height="30" as="geometry" />
        </mxCell>
        <mxCell id="d6yPybzIPCYp1rz6-2Ag-37" value="ALT" style="shape=card;whiteSpace=wrap;html=1;flipV=1;flipH=1;" parent="d6yPybzIPCYp1rz6-2Ag-30" vertex="1">
          <mxGeometry x="20" y="60" width="80" height="40" as="geometry" />
        </mxCell>
        <mxCell id="d6yPybzIPCYp1rz6-2Ag-38" value="" style="endArrow=none;dashed=1;html=1;rounded=0;exitX=0;exitY=0.5;exitDx=0;exitDy=0;entryX=1;entryY=0.5;entryDx=0;entryDy=0;" parent="d6yPybzIPCYp1rz6-2Ag-30" source="d6yPybzIPCYp1rz6-2Ag-35" target="d6yPybzIPCYp1rz6-2Ag-35" edge="1">
          <mxGeometry width="50" height="50" relative="1" as="geometry">
            <mxPoint x="141.08000000000004" y="210" as="sourcePoint" />
            <mxPoint x="191.08000000000004" y="160" as="targetPoint" />
          </mxGeometry>
        </mxCell>
        <mxCell id="d6yPybzIPCYp1rz6-2Ag-39" value="" style="endArrow=classic;html=1;rounded=0;exitX=0.132;exitY=0.097;exitDx=0;exitDy=0;exitPerimeter=0;entryX=0.922;entryY=0.097;entryDx=0;entryDy=0;entryPerimeter=0;" parent="d6yPybzIPCYp1rz6-2Ag-30" edge="1">
          <mxGeometry width="50" height="50" relative="1" as="geometry">
            <mxPoint x="77.08000000000004" y="270" as="sourcePoint" />
            <mxPoint x="677.08" y="270" as="targetPoint" />
          </mxGeometry>
        </mxCell>
        <mxCell id="d6yPybzIPCYp1rz6-2Ag-40" value="cancelar()" style="text;html=1;align=center;verticalAlign=middle;whiteSpace=wrap;rounded=0;" parent="d6yPybzIPCYp1rz6-2Ag-30" vertex="1">
          <mxGeometry x="130.00000000000006" y="240" width="460" height="30" as="geometry" />
        </mxCell>
        <mxCell id="d6yPybzIPCYp1rz6-2Ag-41" value="[Cancela]" style="text;html=1;align=center;verticalAlign=middle;whiteSpace=wrap;rounded=0;" parent="d6yPybzIPCYp1rz6-2Ag-30" vertex="1">
          <mxGeometry x="285.54" y="200" width="148.92" height="30" as="geometry" />
        </mxCell>
        <mxCell id="d6yPybzIPCYp1rz6-2Ag-42" value="altaAsistente(nombre: string, nickname:string, correo: string, apellido: string, FechaNac: date)" style="text;html=1;align=center;verticalAlign=middle;whiteSpace=wrap;rounded=0;" parent="d6yPybzIPCYp1rz6-2Ag-30" vertex="1">
          <mxGeometry x="124" y="120" width="505.46" height="30" as="geometry" />
        </mxCell>
        <mxCell id="d6yPybzIPCYp1rz6-2Ag-43" value="" style="swimlane;startSize=0;" parent="7qbBtTqkFl1bNYgJkVoJ-1" vertex="1">
          <mxGeometry x="-720" y="870" width="720" height="120" as="geometry">
            <mxRectangle x="-720" y="870" width="50" height="40" as="alternateBounds" />
          </mxGeometry>
        </mxCell>
        <mxCell id="d6yPybzIPCYp1rz6-2Ag-44" value="" style="swimlane;startSize=0;" parent="7qbBtTqkFl1bNYgJkVoJ-1" vertex="1">
          <mxGeometry x="-790" y="120" width="860" height="1480" as="geometry" />
        </mxCell>
        <mxCell id="d6yPybzIPCYp1rz6-2Ag-45" value="Alta de Usuario" style="rounded=0;whiteSpace=wrap;html=1;" parent="d6yPybzIPCYp1rz6-2Ag-44" vertex="1">
          <mxGeometry y="-1.4210854715202004e-14" width="160" height="80" as="geometry" />
        </mxCell>
        <mxCell id="d6yPybzIPCYp1rz6-2Ag-46" value="ALT" style="shape=card;whiteSpace=wrap;html=1;flipV=1;flipH=1;" parent="7qbBtTqkFl1bNYgJkVoJ-1" vertex="1">
          <mxGeometry x="-740" y="340" width="84.32" height="40" as="geometry" />
        </mxCell>
        <mxCell id="A78UJtwetm5gxXKHb91W-0" value="altaTRegistro(nombreEdicion: string, nombreTipo: string, descripcion: string, costo: int, cupo:int)" style="text;html=1;align=center;verticalAlign=middle;whiteSpace=wrap;rounded=0;" parent="7qbBtTqkFl1bNYgJkVoJ-1" vertex="1">
          <mxGeometry x="1510" y="1080" width="600" height="30" as="geometry" />
        </mxCell>
        <mxCell id="A78UJtwetm5gxXKHb91W-1" value="No se si hay mehor forma de hacerlo (separar elegir edicion de los datos) sin memoria." style="shape=note;whiteSpace=wrap;html=1;backgroundOutline=1;darkOpacity=0.05;" parent="7qbBtTqkFl1bNYgJkVoJ-1" vertex="1">
          <mxGeometry x="2320" y="800" width="190" height="160" as="geometry" />
        </mxCell>
        <mxCell id="16hVNqSaCc7aMTrVZFsW-0" value="" style="endArrow=none;dashed=1;html=1;rounded=0;" edge="1" parent="7qbBtTqkFl1bNYgJkVoJ-1">
          <mxGeometry width="50" height="50" relative="1" as="geometry">
            <mxPoint x="2230" y="880" as="sourcePoint" />
            <mxPoint x="2320" y="880" as="targetPoint" />
          </mxGeometry>
        </mxCell>
      </root>
    </mxGraphModel>
  </diagram>
  <diagram id="2AvLxePaOKA7bex4RvZ8" name="Diagrama comunicacion">
    <mxGraphModel dx="2705" dy="882" grid="1" gridSize="10" guides="1" tooltips="1" connect="1" arrows="1" fold="1" page="1" pageScale="1" pageWidth="827" pageHeight="1169" math="0" shadow="0">
      <root>
        <mxCell id="0" />
        <mxCell id="1" parent="0" />
        <mxCell id="E-QJe7tGuDHWM9DpwIBM-1" value="" style="rounded=0;whiteSpace=wrap;html=1;" parent="1" vertex="1">
          <mxGeometry x="50" y="50" width="120" height="60" as="geometry" />
        </mxCell>
        <mxCell id="E-QJe7tGuDHWM9DpwIBM-2" value=":Controller" style="text;html=1;align=center;verticalAlign=middle;whiteSpace=wrap;rounded=0;" parent="1" vertex="1">
          <mxGeometry x="80" y="65" width="60" height="30" as="geometry" />
        </mxCell>
        <mxCell id="E-QJe7tGuDHWM9DpwIBM-5" value="" style="group" parent="1" vertex="1" connectable="0">
          <mxGeometry x="600" y="50" width="120" height="60" as="geometry" />
        </mxCell>
        <mxCell id="E-QJe7tGuDHWM9DpwIBM-3" value="" style="rounded=0;whiteSpace=wrap;html=1;" parent="E-QJe7tGuDHWM9DpwIBM-5" vertex="1">
          <mxGeometry width="120" height="60" as="geometry" />
        </mxCell>
        <mxCell id="E-QJe7tGuDHWM9DpwIBM-4" value=":UserHandler" style="text;html=1;align=center;verticalAlign=middle;whiteSpace=wrap;rounded=0;" parent="E-QJe7tGuDHWM9DpwIBM-5" vertex="1">
          <mxGeometry x="10" y="15" width="100" height="30" as="geometry" />
        </mxCell>
        <mxCell id="E-QJe7tGuDHWM9DpwIBM-6" value="" style="endArrow=none;html=1;rounded=0;exitX=1;exitY=0.5;exitDx=0;exitDy=0;entryX=0;entryY=0.5;entryDx=0;entryDy=0;" parent="1" source="E-QJe7tGuDHWM9DpwIBM-1" target="E-QJe7tGuDHWM9DpwIBM-3" edge="1">
          <mxGeometry width="50" height="50" relative="1" as="geometry">
            <mxPoint x="220" y="100" as="sourcePoint" />
            <mxPoint x="270" y="50" as="targetPoint" />
          </mxGeometry>
        </mxCell>
        <mxCell id="E-QJe7tGuDHWM9DpwIBM-7" value="1 ok := crearUsuario(nombre: string, nickname:string, correo: string)" style="text;html=1;align=center;verticalAlign=middle;whiteSpace=wrap;rounded=0;" parent="1" vertex="1">
          <mxGeometry x="180" y="20" width="420" height="30" as="geometry" />
        </mxCell>
        <mxCell id="NfDgCDDHWlr6yrSpXg_z-1" value="ingresarDatosUsuario(nombre: string, nickname:string, correo: string)" style="text;html=1;align=center;verticalAlign=middle;whiteSpace=wrap;rounded=0;" parent="1" vertex="1">
          <mxGeometry x="-430" y="50" width="480" height="30" as="geometry" />
        </mxCell>
        <mxCell id="NfDgCDDHWlr6yrSpXg_z-2" value="" style="endArrow=none;html=1;rounded=0;entryX=0;entryY=0.5;entryDx=0;entryDy=0;" parent="1" target="E-QJe7tGuDHWM9DpwIBM-1" edge="1">
          <mxGeometry width="50" height="50" relative="1" as="geometry">
            <mxPoint x="-420" y="80" as="sourcePoint" />
            <mxPoint x="10" y="79" as="targetPoint" />
          </mxGeometry>
        </mxCell>
        <mxCell id="NfDgCDDHWlr6yrSpXg_z-5" value="" style="group" parent="1" vertex="1" connectable="0">
          <mxGeometry x="1000" y="30" width="140" height="80" as="geometry" />
        </mxCell>
        <mxCell id="FRgvHM9fYlkgVBkxmsja-2" value="" style="group" parent="NfDgCDDHWlr6yrSpXg_z-5" vertex="1" connectable="0">
          <mxGeometry y="10" width="130" height="70" as="geometry" />
        </mxCell>
        <mxCell id="NfDgCDDHWlr6yrSpXg_z-3" value="" style="rounded=0;whiteSpace=wrap;html=1;" parent="FRgvHM9fYlkgVBkxmsja-2" vertex="1">
          <mxGeometry x="10" width="120" height="60" as="geometry" />
        </mxCell>
        <mxCell id="NfDgCDDHWlr6yrSpXg_z-4" value=":Usuario" style="rounded=0;whiteSpace=wrap;html=1;" parent="FRgvHM9fYlkgVBkxmsja-2" vertex="1">
          <mxGeometry y="10" width="120" height="60" as="geometry" />
        </mxCell>
        <mxCell id="NfDgCDDHWlr6yrSpXg_z-6" value="" style="endArrow=none;html=1;rounded=0;exitX=1;exitY=0.5;exitDx=0;exitDy=0;entryX=0;entryY=0.5;entryDx=0;entryDy=0;" parent="1" source="E-QJe7tGuDHWM9DpwIBM-3" target="NfDgCDDHWlr6yrSpXg_z-4" edge="1">
          <mxGeometry width="50" height="50" relative="1" as="geometry">
            <mxPoint x="820" y="170" as="sourcePoint" />
            <mxPoint x="870" y="120" as="targetPoint" />
          </mxGeometry>
        </mxCell>
        <mxCell id="NfDgCDDHWlr6yrSpXg_z-7" value="1.1[while ok]&amp;nbsp; u := next()" style="text;html=1;align=center;verticalAlign=middle;whiteSpace=wrap;rounded=0;" parent="1" vertex="1">
          <mxGeometry x="640" y="50" width="420" height="30" as="geometry" />
        </mxCell>
        <mxCell id="FRgvHM9fYlkgVBkxmsja-1" value="" style="endArrow=none;html=1;rounded=0;exitX=0.75;exitY=1;exitDx=0;exitDy=0;entryX=0;entryY=0.5;entryDx=0;entryDy=0;" parent="1" source="E-QJe7tGuDHWM9DpwIBM-3" target="FRgvHM9fYlkgVBkxmsja-3" edge="1">
          <mxGeometry width="50" height="50" relative="1" as="geometry">
            <mxPoint x="720" y="210" as="sourcePoint" />
            <mxPoint x="990" y="260" as="targetPoint" />
            <Array as="points">
              <mxPoint x="690" y="190" />
            </Array>
          </mxGeometry>
        </mxCell>
        <mxCell id="FRgvHM9fYlkgVBkxmsja-3" value="u: &lt;u&gt;Usuario&lt;/u&gt;" style="rounded=0;whiteSpace=wrap;html=1;" parent="1" vertex="1">
          <mxGeometry x="1090" y="160" width="120" height="60" as="geometry" />
        </mxCell>
        <mxCell id="FRgvHM9fYlkgVBkxmsja-4" value="1.2*&amp;nbsp; ok := u.nombre != nombre &amp;amp;&amp;amp; u.nickname != nickname" style="text;html=1;align=center;verticalAlign=middle;whiteSpace=wrap;rounded=0;" parent="1" vertex="1">
          <mxGeometry x="710" y="160" width="420" height="30" as="geometry" />
        </mxCell>
        <mxCell id="FRgvHM9fYlkgVBkxmsja-5" value="" style="endArrow=none;html=1;rounded=0;entryX=0;entryY=0.5;entryDx=0;entryDy=0;" parent="1" target="FRgvHM9fYlkgVBkxmsja-9" edge="1">
          <mxGeometry width="50" height="50" relative="1" as="geometry">
            <mxPoint x="10" y="320" as="sourcePoint" />
            <mxPoint x="440" y="320" as="targetPoint" />
          </mxGeometry>
        </mxCell>
        <mxCell id="FRgvHM9fYlkgVBkxmsja-6" value="2 [ok] := crearUsuario()" style="text;html=1;align=center;verticalAlign=middle;whiteSpace=wrap;rounded=0;" parent="1" vertex="1">
          <mxGeometry x="180" y="50" width="420" height="30" as="geometry" />
        </mxCell>
        <mxCell id="FRgvHM9fYlkgVBkxmsja-7" value="2 [ok] := crearUsuario(descripcion:string, sitioWeb:string)" style="text;html=1;align=center;verticalAlign=middle;whiteSpace=wrap;rounded=0;" parent="1" vertex="1">
          <mxGeometry x="20" y="290" width="420" height="30" as="geometry" />
        </mxCell>
        <mxCell id="FRgvHM9fYlkgVBkxmsja-8" value="" style="group" parent="1" vertex="1" connectable="0">
          <mxGeometry x="410" y="290" width="120" height="60" as="geometry" />
        </mxCell>
        <mxCell id="FRgvHM9fYlkgVBkxmsja-9" value="" style="rounded=0;whiteSpace=wrap;html=1;" parent="FRgvHM9fYlkgVBkxmsja-8" vertex="1">
          <mxGeometry width="120" height="60" as="geometry" />
        </mxCell>
        <mxCell id="FRgvHM9fYlkgVBkxmsja-10" value=":UserHandler" style="text;html=1;align=center;verticalAlign=middle;whiteSpace=wrap;rounded=0;" parent="FRgvHM9fYlkgVBkxmsja-8" vertex="1">
          <mxGeometry x="10" y="15" width="100" height="30" as="geometry" />
        </mxCell>
        <mxCell id="FRgvHM9fYlkgVBkxmsja-11" value="" style="endArrow=none;html=1;rounded=0;exitX=1;exitY=0.5;exitDx=0;exitDy=0;entryX=0;entryY=0.5;entryDx=0;entryDy=0;" parent="1" source="FRgvHM9fYlkgVBkxmsja-9" target="FRgvHM9fYlkgVBkxmsja-13" edge="1">
          <mxGeometry width="50" height="50" relative="1" as="geometry">
            <mxPoint x="620" y="340" as="sourcePoint" />
            <mxPoint x="1080" y="320" as="targetPoint" />
          </mxGeometry>
        </mxCell>
        <mxCell id="FRgvHM9fYlkgVBkxmsja-12" value="2.1 o := create(nombre: string, nickname:string, correo: string, descripcion:string, sitioWeb:string)" style="text;html=1;align=center;verticalAlign=middle;whiteSpace=wrap;rounded=0;" parent="1" vertex="1">
          <mxGeometry x="550" y="290" width="530" height="30" as="geometry" />
        </mxCell>
        <mxCell id="FRgvHM9fYlkgVBkxmsja-13" value="o: &lt;u&gt;Organizador&lt;/u&gt;" style="rounded=0;whiteSpace=wrap;html=1;" parent="1" vertex="1">
          <mxGeometry x="1090" y="290" width="120" height="60" as="geometry" />
        </mxCell>
        <mxCell id="FRgvHM9fYlkgVBkxmsja-14" value="" style="group" parent="1" vertex="1" connectable="0">
          <mxGeometry x="687" y="420" width="140" height="80" as="geometry" />
        </mxCell>
        <mxCell id="FRgvHM9fYlkgVBkxmsja-15" value="" style="group" parent="FRgvHM9fYlkgVBkxmsja-14" vertex="1" connectable="0">
          <mxGeometry y="10" width="130" height="70" as="geometry" />
        </mxCell>
        <mxCell id="FRgvHM9fYlkgVBkxmsja-16" value="" style="rounded=0;whiteSpace=wrap;html=1;" parent="FRgvHM9fYlkgVBkxmsja-15" vertex="1">
          <mxGeometry x="10" width="120" height="60" as="geometry" />
        </mxCell>
        <mxCell id="FRgvHM9fYlkgVBkxmsja-17" value=":Usuario" style="rounded=0;whiteSpace=wrap;html=1;" parent="FRgvHM9fYlkgVBkxmsja-15" vertex="1">
          <mxGeometry y="10" width="120" height="60" as="geometry" />
        </mxCell>
        <mxCell id="FRgvHM9fYlkgVBkxmsja-18" value="" style="endArrow=none;html=1;rounded=0;exitX=0.75;exitY=1;exitDx=0;exitDy=0;entryX=0;entryY=0.5;entryDx=0;entryDy=0;" parent="1" source="FRgvHM9fYlkgVBkxmsja-9" target="FRgvHM9fYlkgVBkxmsja-17" edge="1">
          <mxGeometry width="50" height="50" relative="1" as="geometry">
            <mxPoint x="490" y="390" as="sourcePoint" />
            <mxPoint x="890" y="470" as="targetPoint" />
            <Array as="points">
              <mxPoint x="500" y="470" />
            </Array>
          </mxGeometry>
        </mxCell>
        <mxCell id="FRgvHM9fYlkgVBkxmsja-19" value="2.2 add(o)" style="text;html=1;align=center;verticalAlign=middle;whiteSpace=wrap;rounded=0;" parent="1" vertex="1">
          <mxGeometry x="550" y="445" width="80" height="30" as="geometry" />
        </mxCell>
        <mxCell id="FRgvHM9fYlkgVBkxmsja-20" value="" style="endArrow=none;html=1;rounded=0;entryX=0;entryY=0.5;entryDx=0;entryDy=0;" parent="1" target="FRgvHM9fYlkgVBkxmsja-23" edge="1">
          <mxGeometry width="50" height="50" relative="1" as="geometry">
            <mxPoint x="10" y="590" as="sourcePoint" />
            <mxPoint x="440" y="590" as="targetPoint" />
          </mxGeometry>
        </mxCell>
        <mxCell id="FRgvHM9fYlkgVBkxmsja-21" value="2 [ok] := crearUsuario(apellido:string, fechaNac:date)" style="text;html=1;align=center;verticalAlign=middle;whiteSpace=wrap;rounded=0;" parent="1" vertex="1">
          <mxGeometry x="20" y="560" width="420" height="30" as="geometry" />
        </mxCell>
        <mxCell id="FRgvHM9fYlkgVBkxmsja-22" value="" style="group" parent="1" vertex="1" connectable="0">
          <mxGeometry x="410" y="560" width="120" height="60" as="geometry" />
        </mxCell>
        <mxCell id="FRgvHM9fYlkgVBkxmsja-23" value="" style="rounded=0;whiteSpace=wrap;html=1;" parent="FRgvHM9fYlkgVBkxmsja-22" vertex="1">
          <mxGeometry width="120" height="60" as="geometry" />
        </mxCell>
        <mxCell id="FRgvHM9fYlkgVBkxmsja-24" value=":UserHandler" style="text;html=1;align=center;verticalAlign=middle;whiteSpace=wrap;rounded=0;" parent="FRgvHM9fYlkgVBkxmsja-22" vertex="1">
          <mxGeometry x="10" y="15" width="100" height="30" as="geometry" />
        </mxCell>
        <mxCell id="FRgvHM9fYlkgVBkxmsja-25" value="" style="endArrow=none;html=1;rounded=0;exitX=1;exitY=0.5;exitDx=0;exitDy=0;entryX=0;entryY=0.5;entryDx=0;entryDy=0;" parent="1" source="FRgvHM9fYlkgVBkxmsja-23" target="FRgvHM9fYlkgVBkxmsja-27" edge="1">
          <mxGeometry width="50" height="50" relative="1" as="geometry">
            <mxPoint x="620" y="610" as="sourcePoint" />
            <mxPoint x="1080" y="590" as="targetPoint" />
          </mxGeometry>
        </mxCell>
        <mxCell id="FRgvHM9fYlkgVBkxmsja-26" value="2.1 o := create(nombre: string, nickname:string, correo: string, apellido:string, fechaNac:date)" style="text;html=1;align=center;verticalAlign=middle;whiteSpace=wrap;rounded=0;" parent="1" vertex="1">
          <mxGeometry x="550" y="560" width="530" height="30" as="geometry" />
        </mxCell>
        <mxCell id="FRgvHM9fYlkgVBkxmsja-27" value="a: &lt;u&gt;Asistente&lt;/u&gt;" style="rounded=0;whiteSpace=wrap;html=1;" parent="1" vertex="1">
          <mxGeometry x="1090" y="560" width="120" height="60" as="geometry" />
        </mxCell>
        <mxCell id="FRgvHM9fYlkgVBkxmsja-28" value="" style="group" parent="1" vertex="1" connectable="0">
          <mxGeometry x="687" y="690" width="140" height="80" as="geometry" />
        </mxCell>
        <mxCell id="FRgvHM9fYlkgVBkxmsja-29" value="" style="group" parent="FRgvHM9fYlkgVBkxmsja-28" vertex="1" connectable="0">
          <mxGeometry y="10" width="130" height="70" as="geometry" />
        </mxCell>
        <mxCell id="FRgvHM9fYlkgVBkxmsja-30" value="" style="rounded=0;whiteSpace=wrap;html=1;" parent="FRgvHM9fYlkgVBkxmsja-29" vertex="1">
          <mxGeometry x="10" width="120" height="60" as="geometry" />
        </mxCell>
        <mxCell id="FRgvHM9fYlkgVBkxmsja-31" value=":Usuario" style="rounded=0;whiteSpace=wrap;html=1;" parent="FRgvHM9fYlkgVBkxmsja-29" vertex="1">
          <mxGeometry y="10" width="120" height="60" as="geometry" />
        </mxCell>
        <mxCell id="FRgvHM9fYlkgVBkxmsja-32" value="" style="endArrow=none;html=1;rounded=0;exitX=0.75;exitY=1;exitDx=0;exitDy=0;entryX=0;entryY=0.5;entryDx=0;entryDy=0;" parent="1" source="FRgvHM9fYlkgVBkxmsja-23" target="FRgvHM9fYlkgVBkxmsja-31" edge="1">
          <mxGeometry width="50" height="50" relative="1" as="geometry">
            <mxPoint x="490" y="660" as="sourcePoint" />
            <mxPoint x="890" y="740" as="targetPoint" />
            <Array as="points">
              <mxPoint x="500" y="740" />
            </Array>
          </mxGeometry>
        </mxCell>
        <mxCell id="FRgvHM9fYlkgVBkxmsja-33" value="2.2 add(a)" style="text;html=1;align=center;verticalAlign=middle;whiteSpace=wrap;rounded=0;" parent="1" vertex="1">
          <mxGeometry x="550" y="715" width="80" height="30" as="geometry" />
        </mxCell>
        <mxCell id="xBfTpI2Twx2xGVRk_fGE-1" value=":Controller" style="rounded=0;whiteSpace=wrap;html=1;" vertex="1" parent="1">
          <mxGeometry x="57" y="890" width="120" height="60" as="geometry" />
        </mxCell>
        <mxCell id="xBfTpI2Twx2xGVRk_fGE-3" value="" style="group" vertex="1" connectable="0" parent="1">
          <mxGeometry x="670" y="890" width="120" height="60" as="geometry" />
        </mxCell>
        <mxCell id="xBfTpI2Twx2xGVRk_fGE-4" value="" style="rounded=0;whiteSpace=wrap;html=1;" vertex="1" parent="xBfTpI2Twx2xGVRk_fGE-3">
          <mxGeometry width="120" height="60" as="geometry" />
        </mxCell>
        <mxCell id="xBfTpI2Twx2xGVRk_fGE-5" value=":UserHandler" style="text;html=1;align=center;verticalAlign=middle;whiteSpace=wrap;rounded=0;" vertex="1" parent="xBfTpI2Twx2xGVRk_fGE-3">
          <mxGeometry x="10" y="15" width="100" height="30" as="geometry" />
        </mxCell>
        <mxCell id="xBfTpI2Twx2xGVRk_fGE-6" value="" style="endArrow=none;html=1;rounded=0;exitX=1;exitY=0.5;exitDx=0;exitDy=0;entryX=0;entryY=0.5;entryDx=0;entryDy=0;" edge="1" parent="1" source="xBfTpI2Twx2xGVRk_fGE-1" target="xBfTpI2Twx2xGVRk_fGE-4">
          <mxGeometry width="50" height="50" relative="1" as="geometry">
            <mxPoint x="237" y="940" as="sourcePoint" />
            <mxPoint x="287" y="890" as="targetPoint" />
          </mxGeometry>
        </mxCell>
        <mxCell id="xBfTpI2Twx2xGVRk_fGE-7" value="1 ok := crearOrganizador(nombre: string, nickname:string, correo: string, descripcion: string)" style="text;html=1;align=center;verticalAlign=middle;whiteSpace=wrap;rounded=0;" vertex="1" parent="1">
          <mxGeometry x="177" y="890" width="493" height="30" as="geometry" />
        </mxCell>
        <mxCell id="xBfTpI2Twx2xGVRk_fGE-8" value="altaOrganizador(nombre: string, nickname: string, correo: string, descripcion: string)" style="text;html=1;align=center;verticalAlign=middle;whiteSpace=wrap;rounded=0;" vertex="1" parent="1">
          <mxGeometry x="-413" y="890" width="480" height="30" as="geometry" />
        </mxCell>
        <mxCell id="xBfTpI2Twx2xGVRk_fGE-9" value="" style="endArrow=none;html=1;rounded=0;entryX=0;entryY=0.5;entryDx=0;entryDy=0;" edge="1" parent="1" target="xBfTpI2Twx2xGVRk_fGE-1">
          <mxGeometry width="50" height="50" relative="1" as="geometry">
            <mxPoint x="-403" y="920" as="sourcePoint" />
            <mxPoint x="27" y="919" as="targetPoint" />
          </mxGeometry>
        </mxCell>
        <mxCell id="xBfTpI2Twx2xGVRk_fGE-10" value="" style="group" vertex="1" connectable="0" parent="1">
          <mxGeometry x="1017" y="870" width="140" height="80" as="geometry" />
        </mxCell>
        <mxCell id="xBfTpI2Twx2xGVRk_fGE-11" value="" style="group" vertex="1" connectable="0" parent="xBfTpI2Twx2xGVRk_fGE-10">
          <mxGeometry y="10" width="130" height="70" as="geometry" />
        </mxCell>
        <mxCell id="xBfTpI2Twx2xGVRk_fGE-12" value="" style="rounded=0;whiteSpace=wrap;html=1;" vertex="1" parent="xBfTpI2Twx2xGVRk_fGE-11">
          <mxGeometry x="10" width="120" height="60" as="geometry" />
        </mxCell>
        <mxCell id="xBfTpI2Twx2xGVRk_fGE-13" value=":Usuario" style="rounded=0;whiteSpace=wrap;html=1;" vertex="1" parent="xBfTpI2Twx2xGVRk_fGE-11">
          <mxGeometry y="10" width="120" height="60" as="geometry" />
        </mxCell>
        <mxCell id="xBfTpI2Twx2xGVRk_fGE-14" value="" style="endArrow=none;html=1;rounded=0;exitX=1;exitY=0.5;exitDx=0;exitDy=0;entryX=0;entryY=0.5;entryDx=0;entryDy=0;" edge="1" parent="1" source="xBfTpI2Twx2xGVRk_fGE-4" target="xBfTpI2Twx2xGVRk_fGE-13">
          <mxGeometry width="50" height="50" relative="1" as="geometry">
            <mxPoint x="837" y="1010" as="sourcePoint" />
            <mxPoint x="887" y="960" as="targetPoint" />
          </mxGeometry>
        </mxCell>
        <mxCell id="xBfTpI2Twx2xGVRk_fGE-15" value="1.1[while ok]&amp;nbsp; u := next()" style="text;html=1;align=center;verticalAlign=middle;whiteSpace=wrap;rounded=0;" vertex="1" parent="1">
          <mxGeometry x="700" y="890" width="420" height="30" as="geometry" />
        </mxCell>
        <mxCell id="xBfTpI2Twx2xGVRk_fGE-16" value="" style="endArrow=none;html=1;rounded=0;exitX=0.75;exitY=1;exitDx=0;exitDy=0;entryX=0;entryY=0.5;entryDx=0;entryDy=0;" edge="1" parent="1" source="xBfTpI2Twx2xGVRk_fGE-4" target="xBfTpI2Twx2xGVRk_fGE-17">
          <mxGeometry width="50" height="50" relative="1" as="geometry">
            <mxPoint x="737" y="1050" as="sourcePoint" />
            <mxPoint x="1007" y="1100" as="targetPoint" />
            <Array as="points">
              <mxPoint x="760" y="1030" />
            </Array>
          </mxGeometry>
        </mxCell>
        <mxCell id="xBfTpI2Twx2xGVRk_fGE-17" value="u: &lt;u&gt;Usuario&lt;/u&gt;" style="rounded=0;whiteSpace=wrap;html=1;" vertex="1" parent="1">
          <mxGeometry x="1107" y="1000" width="120" height="60" as="geometry" />
        </mxCell>
        <mxCell id="xBfTpI2Twx2xGVRk_fGE-18" value="1.2*&amp;nbsp; ok := u.nombre != nombre &amp;amp;&amp;amp; u.nickname != nickname" style="text;html=1;align=center;verticalAlign=middle;whiteSpace=wrap;rounded=0;" vertex="1" parent="1">
          <mxGeometry x="727" y="1000" width="420" height="30" as="geometry" />
        </mxCell>
        <mxCell id="Ln4g0gqs6YG97RZxAw7t-1" value="" style="endArrow=none;html=1;rounded=0;entryX=0.644;entryY=0.989;entryDx=0;entryDy=0;exitX=0;exitY=0.5;exitDx=0;exitDy=0;entryPerimeter=0;" edge="1" parent="1" source="Ln4g0gqs6YG97RZxAw7t-2" target="xBfTpI2Twx2xGVRk_fGE-4">
          <mxGeometry width="50" height="50" relative="1" as="geometry">
            <mxPoint x="1170" y="1250" as="sourcePoint" />
            <mxPoint x="750" y="1080" as="targetPoint" />
            <Array as="points">
              <mxPoint x="747" y="1160" />
            </Array>
          </mxGeometry>
        </mxCell>
        <mxCell id="Ln4g0gqs6YG97RZxAw7t-2" value="o: &lt;u&gt;Organizador&lt;/u&gt;" style="rounded=0;whiteSpace=wrap;html=1;" vertex="1" parent="1">
          <mxGeometry x="1241" y="1130" width="120" height="60" as="geometry" />
        </mxCell>
        <mxCell id="Ln4g0gqs6YG97RZxAw7t-3" value="1.3[ok] o := create(nombre: string, nickname:string, correo: string, descripcion: string)" style="text;html=1;align=center;verticalAlign=middle;whiteSpace=wrap;rounded=0;" vertex="1" parent="1">
          <mxGeometry x="760" y="1130" width="493" height="30" as="geometry" />
        </mxCell>
        <mxCell id="Ln4g0gqs6YG97RZxAw7t-4" value="" style="endArrow=none;html=1;rounded=0;entryX=0.5;entryY=1;entryDx=0;entryDy=0;exitX=0;exitY=0.5;exitDx=0;exitDy=0;" edge="1" parent="1" source="Ln4g0gqs6YG97RZxAw7t-9" target="xBfTpI2Twx2xGVRk_fGE-4">
          <mxGeometry width="50" height="50" relative="1" as="geometry">
            <mxPoint x="1240" y="1280" as="sourcePoint" />
            <mxPoint x="720" y="1210" as="targetPoint" />
            <Array as="points">
              <mxPoint x="730" y="1290" />
            </Array>
          </mxGeometry>
        </mxCell>
        <mxCell id="Ln4g0gqs6YG97RZxAw7t-5" value="1.4[ok] add(o)" style="text;html=1;align=center;verticalAlign=middle;whiteSpace=wrap;rounded=0;" vertex="1" parent="1">
          <mxGeometry x="780" y="1260" width="116" height="30" as="geometry" />
        </mxCell>
        <mxCell id="Ln4g0gqs6YG97RZxAw7t-6" value="" style="group" vertex="1" connectable="0" parent="1">
          <mxGeometry x="936.5" y="1240" width="140" height="80" as="geometry" />
        </mxCell>
        <mxCell id="Ln4g0gqs6YG97RZxAw7t-7" value="" style="group" vertex="1" connectable="0" parent="Ln4g0gqs6YG97RZxAw7t-6">
          <mxGeometry y="10" width="130" height="70" as="geometry" />
        </mxCell>
        <mxCell id="Ln4g0gqs6YG97RZxAw7t-8" value="" style="rounded=0;whiteSpace=wrap;html=1;" vertex="1" parent="Ln4g0gqs6YG97RZxAw7t-7">
          <mxGeometry x="10" width="120" height="60" as="geometry" />
        </mxCell>
        <mxCell id="Ln4g0gqs6YG97RZxAw7t-9" value=":Usuario" style="rounded=0;whiteSpace=wrap;html=1;" vertex="1" parent="Ln4g0gqs6YG97RZxAw7t-7">
          <mxGeometry y="10" width="120" height="60" as="geometry" />
        </mxCell>
        <mxCell id="Ln4g0gqs6YG97RZxAw7t-10" value="&lt;span style=&quot;background-color: rgb(0, 255, 255);&quot;&gt;Coleccion de ususarios o de organizadores y asistentes por separado? o ambas&lt;/span&gt;" style="shape=note;whiteSpace=wrap;html=1;backgroundOutline=1;darkOpacity=0.05;" vertex="1" parent="1">
          <mxGeometry x="210" y="1070" width="260" height="90" as="geometry" />
        </mxCell>
        <mxCell id="xemnoNwYBVMKMxOREM2L-1" value=":Controller" style="rounded=0;whiteSpace=wrap;html=1;" vertex="1" parent="1">
          <mxGeometry x="197" y="1390" width="120" height="60" as="geometry" />
        </mxCell>
        <mxCell id="xemnoNwYBVMKMxOREM2L-3" value="" style="group" vertex="1" connectable="0" parent="1">
          <mxGeometry x="670" y="1390" width="120" height="60" as="geometry" />
        </mxCell>
        <mxCell id="xemnoNwYBVMKMxOREM2L-4" value="" style="rounded=0;whiteSpace=wrap;html=1;" vertex="1" parent="xemnoNwYBVMKMxOREM2L-3">
          <mxGeometry width="120" height="60" as="geometry" />
        </mxCell>
        <mxCell id="xemnoNwYBVMKMxOREM2L-5" value=":UserHandler" style="text;html=1;align=center;verticalAlign=middle;whiteSpace=wrap;rounded=0;" vertex="1" parent="xemnoNwYBVMKMxOREM2L-3">
          <mxGeometry x="10" y="15" width="100" height="30" as="geometry" />
        </mxCell>
        <mxCell id="xemnoNwYBVMKMxOREM2L-6" value="" style="endArrow=none;html=1;rounded=0;exitX=1;exitY=0.5;exitDx=0;exitDy=0;entryX=0;entryY=0.5;entryDx=0;entryDy=0;" edge="1" parent="1" source="xemnoNwYBVMKMxOREM2L-1" target="xemnoNwYBVMKMxOREM2L-4">
          <mxGeometry width="50" height="50" relative="1" as="geometry">
            <mxPoint x="237" y="1440" as="sourcePoint" />
            <mxPoint x="287" y="1390" as="targetPoint" />
          </mxGeometry>
        </mxCell>
        <mxCell id="xemnoNwYBVMKMxOREM2L-8" value="agregarWeb(URL: string, nickname: string)" style="text;html=1;align=center;verticalAlign=middle;whiteSpace=wrap;rounded=0;" vertex="1" parent="1">
          <mxGeometry x="-100" y="1390" width="310" height="30" as="geometry" />
        </mxCell>
        <mxCell id="xemnoNwYBVMKMxOREM2L-9" value="" style="endArrow=none;html=1;rounded=0;entryX=0;entryY=0.5;entryDx=0;entryDy=0;" edge="1" parent="1" target="xemnoNwYBVMKMxOREM2L-1">
          <mxGeometry width="50" height="50" relative="1" as="geometry">
            <mxPoint x="-100" y="1420" as="sourcePoint" />
            <mxPoint x="27" y="1419" as="targetPoint" />
          </mxGeometry>
        </mxCell>
        <mxCell id="xemnoNwYBVMKMxOREM2L-10" value="" style="group" vertex="1" connectable="0" parent="1">
          <mxGeometry x="1017" y="1370" width="140" height="80" as="geometry" />
        </mxCell>
        <mxCell id="xemnoNwYBVMKMxOREM2L-11" value="" style="group" vertex="1" connectable="0" parent="xemnoNwYBVMKMxOREM2L-10">
          <mxGeometry y="10" width="130" height="70" as="geometry" />
        </mxCell>
        <mxCell id="xemnoNwYBVMKMxOREM2L-12" value="" style="rounded=0;whiteSpace=wrap;html=1;" vertex="1" parent="xemnoNwYBVMKMxOREM2L-11">
          <mxGeometry x="10" width="120" height="60" as="geometry" />
        </mxCell>
        <mxCell id="xemnoNwYBVMKMxOREM2L-13" value=":Usuario" style="rounded=0;whiteSpace=wrap;html=1;" vertex="1" parent="xemnoNwYBVMKMxOREM2L-11">
          <mxGeometry y="10" width="120" height="60" as="geometry" />
        </mxCell>
        <mxCell id="xemnoNwYBVMKMxOREM2L-14" value="" style="endArrow=none;html=1;rounded=0;exitX=1;exitY=0.5;exitDx=0;exitDy=0;entryX=0;entryY=0.5;entryDx=0;entryDy=0;" edge="1" parent="1" source="xemnoNwYBVMKMxOREM2L-4" target="xemnoNwYBVMKMxOREM2L-13">
          <mxGeometry width="50" height="50" relative="1" as="geometry">
            <mxPoint x="837" y="1510" as="sourcePoint" />
            <mxPoint x="887" y="1460" as="targetPoint" />
          </mxGeometry>
        </mxCell>
        <mxCell id="xemnoNwYBVMKMxOREM2L-15" value="1.1&amp;nbsp; u := find(nickname: string)" style="text;html=1;align=center;verticalAlign=middle;whiteSpace=wrap;rounded=0;" vertex="1" parent="1">
          <mxGeometry x="700" y="1390" width="420" height="30" as="geometry" />
        </mxCell>
        <mxCell id="xemnoNwYBVMKMxOREM2L-16" value="" style="endArrow=none;html=1;rounded=0;exitX=0.75;exitY=1;exitDx=0;exitDy=0;entryX=0;entryY=0.5;entryDx=0;entryDy=0;" edge="1" parent="1" source="xemnoNwYBVMKMxOREM2L-4" target="xemnoNwYBVMKMxOREM2L-17">
          <mxGeometry width="50" height="50" relative="1" as="geometry">
            <mxPoint x="737" y="1550" as="sourcePoint" />
            <mxPoint x="1007" y="1600" as="targetPoint" />
            <Array as="points">
              <mxPoint x="760" y="1530" />
            </Array>
          </mxGeometry>
        </mxCell>
        <mxCell id="xemnoNwYBVMKMxOREM2L-17" value="u: &lt;u&gt;Usuario&lt;/u&gt;" style="rounded=0;whiteSpace=wrap;html=1;" vertex="1" parent="1">
          <mxGeometry x="1020" y="1500" width="120" height="60" as="geometry" />
        </mxCell>
        <mxCell id="xemnoNwYBVMKMxOREM2L-18" value="1.2&amp;nbsp; setWeb(URL: string)" style="text;html=1;align=center;verticalAlign=middle;whiteSpace=wrap;rounded=0;" vertex="1" parent="1">
          <mxGeometry x="810" y="1500" width="160" height="30" as="geometry" />
        </mxCell>
        <mxCell id="-1guwE6cVDHNDWkL0OHP-1" value="agregarWeb(URL: string, nickname: string)" style="text;html=1;align=center;verticalAlign=middle;whiteSpace=wrap;rounded=0;" vertex="1" parent="1">
          <mxGeometry x="350" y="1395" width="277" height="30" as="geometry" />
        </mxCell>
        <mxCell id="-1guwE6cVDHNDWkL0OHP-4" value="" style="group" vertex="1" connectable="0" parent="1">
          <mxGeometry x="683" y="1660" width="120" height="60" as="geometry" />
        </mxCell>
        <mxCell id="-1guwE6cVDHNDWkL0OHP-5" value="" style="rounded=0;whiteSpace=wrap;html=1;" vertex="1" parent="-1guwE6cVDHNDWkL0OHP-4">
          <mxGeometry width="120" height="60" as="geometry" />
        </mxCell>
        <mxCell id="-1guwE6cVDHNDWkL0OHP-6" value=":UserHandler" style="text;html=1;align=center;verticalAlign=middle;whiteSpace=wrap;rounded=0;" vertex="1" parent="-1guwE6cVDHNDWkL0OHP-4">
          <mxGeometry x="10" y="15" width="100" height="30" as="geometry" />
        </mxCell>
        <mxCell id="-1guwE6cVDHNDWkL0OHP-7" value="" style="endArrow=none;html=1;rounded=0;exitX=1;exitY=0.5;exitDx=0;exitDy=0;entryX=0;entryY=0.5;entryDx=0;entryDy=0;" edge="1" parent="1" source="-1guwE6cVDHNDWkL0OHP-2" target="-1guwE6cVDHNDWkL0OHP-5">
          <mxGeometry width="50" height="50" relative="1" as="geometry">
            <mxPoint x="250" y="1710" as="sourcePoint" />
            <mxPoint x="300" y="1660" as="targetPoint" />
          </mxGeometry>
        </mxCell>
        <mxCell id="-1guwE6cVDHNDWkL0OHP-8" value="1 ok := crearAsistente(nombre: string, nickname:string, correo: string, apellido: string, fechaNac: date)" style="text;html=1;align=center;verticalAlign=middle;whiteSpace=wrap;rounded=0;" vertex="1" parent="1">
          <mxGeometry x="90" y="1660" width="593" height="30" as="geometry" />
        </mxCell>
        <mxCell id="-1guwE6cVDHNDWkL0OHP-9" value="altaAsistente(nombre: string, nickname: string, correo: string, apellido: string, fechaNac: date)" style="text;html=1;align=center;verticalAlign=middle;whiteSpace=wrap;rounded=0;" vertex="1" parent="1">
          <mxGeometry x="-510" y="1660" width="510" height="30" as="geometry" />
        </mxCell>
        <mxCell id="-1guwE6cVDHNDWkL0OHP-10" value="" style="endArrow=none;html=1;rounded=0;entryX=0;entryY=0.5;entryDx=0;entryDy=0;" edge="1" parent="1" target="-1guwE6cVDHNDWkL0OHP-2">
          <mxGeometry width="50" height="50" relative="1" as="geometry">
            <mxPoint x="-520" y="1690" as="sourcePoint" />
            <mxPoint x="40" y="1689" as="targetPoint" />
          </mxGeometry>
        </mxCell>
        <mxCell id="-1guwE6cVDHNDWkL0OHP-11" value="" style="group" vertex="1" connectable="0" parent="1">
          <mxGeometry x="1030" y="1640" width="140" height="80" as="geometry" />
        </mxCell>
        <mxCell id="-1guwE6cVDHNDWkL0OHP-12" value="" style="group" vertex="1" connectable="0" parent="-1guwE6cVDHNDWkL0OHP-11">
          <mxGeometry y="10" width="130" height="70" as="geometry" />
        </mxCell>
        <mxCell id="-1guwE6cVDHNDWkL0OHP-13" value="" style="rounded=0;whiteSpace=wrap;html=1;" vertex="1" parent="-1guwE6cVDHNDWkL0OHP-12">
          <mxGeometry x="10" width="120" height="60" as="geometry" />
        </mxCell>
        <mxCell id="-1guwE6cVDHNDWkL0OHP-14" value=":Usuario" style="rounded=0;whiteSpace=wrap;html=1;" vertex="1" parent="-1guwE6cVDHNDWkL0OHP-12">
          <mxGeometry y="10" width="120" height="60" as="geometry" />
        </mxCell>
        <mxCell id="-1guwE6cVDHNDWkL0OHP-15" value="" style="endArrow=none;html=1;rounded=0;exitX=1;exitY=0.5;exitDx=0;exitDy=0;entryX=0;entryY=0.5;entryDx=0;entryDy=0;" edge="1" parent="1" source="-1guwE6cVDHNDWkL0OHP-5" target="-1guwE6cVDHNDWkL0OHP-14">
          <mxGeometry width="50" height="50" relative="1" as="geometry">
            <mxPoint x="850" y="1780" as="sourcePoint" />
            <mxPoint x="900" y="1730" as="targetPoint" />
          </mxGeometry>
        </mxCell>
        <mxCell id="-1guwE6cVDHNDWkL0OHP-16" value="1.1[while ok]&amp;nbsp; u := next()" style="text;html=1;align=center;verticalAlign=middle;whiteSpace=wrap;rounded=0;" vertex="1" parent="1">
          <mxGeometry x="851.5" y="1660" width="163" height="30" as="geometry" />
        </mxCell>
        <mxCell id="-1guwE6cVDHNDWkL0OHP-17" value="" style="endArrow=none;html=1;rounded=0;exitX=0.75;exitY=1;exitDx=0;exitDy=0;entryX=0;entryY=0.5;entryDx=0;entryDy=0;" edge="1" parent="1" source="-1guwE6cVDHNDWkL0OHP-5" target="-1guwE6cVDHNDWkL0OHP-18">
          <mxGeometry width="50" height="50" relative="1" as="geometry">
            <mxPoint x="750" y="1820" as="sourcePoint" />
            <mxPoint x="1020" y="1870" as="targetPoint" />
            <Array as="points">
              <mxPoint x="773" y="1800" />
            </Array>
          </mxGeometry>
        </mxCell>
        <mxCell id="-1guwE6cVDHNDWkL0OHP-18" value="u: &lt;u&gt;Usuario&lt;/u&gt;" style="rounded=0;whiteSpace=wrap;html=1;" vertex="1" parent="1">
          <mxGeometry x="1120" y="1770" width="120" height="60" as="geometry" />
        </mxCell>
        <mxCell id="-1guwE6cVDHNDWkL0OHP-19" value="1.2*&amp;nbsp; ok := u.nombre != nombre &amp;amp;&amp;amp; u.nickname != nickname" style="text;html=1;align=center;verticalAlign=middle;whiteSpace=wrap;rounded=0;" vertex="1" parent="1">
          <mxGeometry x="773" y="1770" width="350" height="30" as="geometry" />
        </mxCell>
        <mxCell id="-1guwE6cVDHNDWkL0OHP-20" value="" style="endArrow=none;html=1;rounded=0;entryX=0.644;entryY=0.989;entryDx=0;entryDy=0;exitX=0;exitY=0.5;exitDx=0;exitDy=0;entryPerimeter=0;" edge="1" parent="1" source="-1guwE6cVDHNDWkL0OHP-21" target="-1guwE6cVDHNDWkL0OHP-5">
          <mxGeometry width="50" height="50" relative="1" as="geometry">
            <mxPoint x="1183" y="2020" as="sourcePoint" />
            <mxPoint x="763" y="1850" as="targetPoint" />
            <Array as="points">
              <mxPoint x="760" y="1930" />
            </Array>
          </mxGeometry>
        </mxCell>
        <mxCell id="-1guwE6cVDHNDWkL0OHP-21" value="a: &lt;u&gt;Asistente&lt;/u&gt;" style="rounded=0;whiteSpace=wrap;html=1;" vertex="1" parent="1">
          <mxGeometry x="1310" y="1900" width="120" height="60" as="geometry" />
        </mxCell>
        <mxCell id="-1guwE6cVDHNDWkL0OHP-22" value="1.3[ok] a := create(nombre: string, nickname:string, correo: string, apellido: string, fechaNac: date)" style="text;html=1;align=center;verticalAlign=middle;whiteSpace=wrap;rounded=0;" vertex="1" parent="1">
          <mxGeometry x="773" y="1900" width="527" height="30" as="geometry" />
        </mxCell>
        <mxCell id="-1guwE6cVDHNDWkL0OHP-23" value="" style="endArrow=none;html=1;rounded=0;entryX=0.5;entryY=1;entryDx=0;entryDy=0;exitX=0;exitY=0.5;exitDx=0;exitDy=0;" edge="1" parent="1" source="-1guwE6cVDHNDWkL0OHP-28" target="-1guwE6cVDHNDWkL0OHP-5">
          <mxGeometry width="50" height="50" relative="1" as="geometry">
            <mxPoint x="1253" y="2050" as="sourcePoint" />
            <mxPoint x="733" y="1980" as="targetPoint" />
            <Array as="points">
              <mxPoint x="743" y="2060" />
            </Array>
          </mxGeometry>
        </mxCell>
        <mxCell id="-1guwE6cVDHNDWkL0OHP-24" value="1.4[ok] add(a)" style="text;html=1;align=center;verticalAlign=middle;whiteSpace=wrap;rounded=0;" vertex="1" parent="1">
          <mxGeometry x="793" y="2030" width="116" height="30" as="geometry" />
        </mxCell>
        <mxCell id="-1guwE6cVDHNDWkL0OHP-25" value="" style="group" vertex="1" connectable="0" parent="1">
          <mxGeometry x="949.5" y="2010" width="140" height="80" as="geometry" />
        </mxCell>
        <mxCell id="-1guwE6cVDHNDWkL0OHP-26" value="" style="group" vertex="1" connectable="0" parent="-1guwE6cVDHNDWkL0OHP-25">
          <mxGeometry y="10" width="130" height="70" as="geometry" />
        </mxCell>
        <mxCell id="-1guwE6cVDHNDWkL0OHP-27" value="" style="rounded=0;whiteSpace=wrap;html=1;" vertex="1" parent="-1guwE6cVDHNDWkL0OHP-26">
          <mxGeometry x="10" width="120" height="60" as="geometry" />
        </mxCell>
        <mxCell id="-1guwE6cVDHNDWkL0OHP-28" value=":Usuario" style="rounded=0;whiteSpace=wrap;html=1;" vertex="1" parent="-1guwE6cVDHNDWkL0OHP-26">
          <mxGeometry y="10" width="120" height="60" as="geometry" />
        </mxCell>
        <mxCell id="-1guwE6cVDHNDWkL0OHP-29" value="&lt;span style=&quot;background-color: rgb(0, 255, 255);&quot;&gt;Coleccion de ususarios o de organizadores y asistentes por separado? o ambas&lt;/span&gt;" style="shape=note;whiteSpace=wrap;html=1;backgroundOutline=1;darkOpacity=0.05;" vertex="1" parent="1">
          <mxGeometry x="223" y="1840" width="260" height="90" as="geometry" />
        </mxCell>
        <mxCell id="-1guwE6cVDHNDWkL0OHP-30" value="" style="group" vertex="1" connectable="0" parent="1">
          <mxGeometry y="1660" width="120" height="60" as="geometry" />
        </mxCell>
        <mxCell id="-1guwE6cVDHNDWkL0OHP-2" value="" style="rounded=0;whiteSpace=wrap;html=1;" vertex="1" parent="-1guwE6cVDHNDWkL0OHP-30">
          <mxGeometry width="120" height="60" as="geometry" />
        </mxCell>
        <mxCell id="-1guwE6cVDHNDWkL0OHP-3" value=":Controller" style="text;html=1;align=center;verticalAlign=middle;whiteSpace=wrap;rounded=0;" vertex="1" parent="-1guwE6cVDHNDWkL0OHP-30">
          <mxGeometry x="30" y="15" width="60" height="30" as="geometry" />
        </mxCell>
        <mxCell id="dcVQTKdJammGfZCv8vj_-1" value="" style="group" vertex="1" connectable="0" parent="1">
          <mxGeometry x="873" y="2220" width="120" height="60" as="geometry" />
        </mxCell>
        <mxCell id="dcVQTKdJammGfZCv8vj_-2" value=":&lt;u&gt;EdicionHandler&lt;/u&gt;" style="rounded=0;whiteSpace=wrap;html=1;" vertex="1" parent="dcVQTKdJammGfZCv8vj_-1">
          <mxGeometry width="120" height="60" as="geometry" />
        </mxCell>
        <mxCell id="dcVQTKdJammGfZCv8vj_-4" value="" style="endArrow=none;html=1;rounded=0;exitX=1;exitY=0.5;exitDx=0;exitDy=0;entryX=0;entryY=0.5;entryDx=0;entryDy=0;" edge="1" parent="1" source="dcVQTKdJammGfZCv8vj_-28" target="dcVQTKdJammGfZCv8vj_-2">
          <mxGeometry width="50" height="50" relative="1" as="geometry">
            <mxPoint x="440" y="2270" as="sourcePoint" />
            <mxPoint x="490" y="2220" as="targetPoint" />
          </mxGeometry>
        </mxCell>
        <mxCell id="dcVQTKdJammGfZCv8vj_-5" value="1 ok := crearTRegistro(nombreEdicion: string, nombreTipo: string, descripcion: string, costo: int, cupo:int)" style="text;html=1;align=center;verticalAlign=middle;whiteSpace=wrap;rounded=0;" vertex="1" parent="1">
          <mxGeometry x="293.5" y="2220" width="593" height="30" as="geometry" />
        </mxCell>
        <mxCell id="dcVQTKdJammGfZCv8vj_-7" value="" style="endArrow=none;html=1;rounded=0;entryX=0;entryY=0.5;entryDx=0;entryDy=0;" edge="1" parent="1" target="dcVQTKdJammGfZCv8vj_-28">
          <mxGeometry width="50" height="50" relative="1" as="geometry">
            <mxPoint x="-360" y="2250" as="sourcePoint" />
            <mxPoint x="230" y="2249" as="targetPoint" />
          </mxGeometry>
        </mxCell>
        <mxCell id="dcVQTKdJammGfZCv8vj_-8" value="" style="group" vertex="1" connectable="0" parent="1">
          <mxGeometry x="1220" y="2200" width="140" height="80" as="geometry" />
        </mxCell>
        <mxCell id="dcVQTKdJammGfZCv8vj_-9" value="" style="group" vertex="1" connectable="0" parent="dcVQTKdJammGfZCv8vj_-8">
          <mxGeometry y="10" width="130" height="70" as="geometry" />
        </mxCell>
        <mxCell id="dcVQTKdJammGfZCv8vj_-10" value="" style="rounded=0;whiteSpace=wrap;html=1;" vertex="1" parent="dcVQTKdJammGfZCv8vj_-9">
          <mxGeometry x="10" width="120" height="60" as="geometry" />
        </mxCell>
        <mxCell id="dcVQTKdJammGfZCv8vj_-11" value=":Edicion" style="rounded=0;whiteSpace=wrap;html=1;" vertex="1" parent="dcVQTKdJammGfZCv8vj_-9">
          <mxGeometry y="10" width="120" height="60" as="geometry" />
        </mxCell>
        <mxCell id="dcVQTKdJammGfZCv8vj_-12" value="" style="endArrow=none;html=1;rounded=0;exitX=1;exitY=0.5;exitDx=0;exitDy=0;entryX=0;entryY=0.5;entryDx=0;entryDy=0;" edge="1" parent="1" source="dcVQTKdJammGfZCv8vj_-2" target="dcVQTKdJammGfZCv8vj_-11">
          <mxGeometry width="50" height="50" relative="1" as="geometry">
            <mxPoint x="1040" y="2340" as="sourcePoint" />
            <mxPoint x="1090" y="2290" as="targetPoint" />
          </mxGeometry>
        </mxCell>
        <mxCell id="dcVQTKdJammGfZCv8vj_-13" value="1.1&amp;nbsp; e := find(nombreEdicion: string)" style="text;html=1;align=center;verticalAlign=middle;whiteSpace=wrap;rounded=0;" vertex="1" parent="1">
          <mxGeometry x="996.75" y="2220" width="206.5" height="30" as="geometry" />
        </mxCell>
        <mxCell id="dcVQTKdJammGfZCv8vj_-14" value="" style="endArrow=none;html=1;rounded=0;exitX=0.75;exitY=1;exitDx=0;exitDy=0;entryX=0;entryY=0.5;entryDx=0;entryDy=0;" edge="1" parent="1" source="dcVQTKdJammGfZCv8vj_-2" target="dcVQTKdJammGfZCv8vj_-15">
          <mxGeometry width="50" height="50" relative="1" as="geometry">
            <mxPoint x="940" y="2380" as="sourcePoint" />
            <mxPoint x="1210" y="2430" as="targetPoint" />
            <Array as="points">
              <mxPoint x="963" y="2360" />
            </Array>
          </mxGeometry>
        </mxCell>
        <mxCell id="dcVQTKdJammGfZCv8vj_-15" value="e: &lt;u&gt;Edicion&lt;/u&gt;" style="rounded=0;whiteSpace=wrap;html=1;" vertex="1" parent="1">
          <mxGeometry x="1310" y="2330" width="120" height="60" as="geometry" />
        </mxCell>
        <mxCell id="dcVQTKdJammGfZCv8vj_-16" value="1.2*&amp;nbsp; ok := existeNombre(nombreRegistro: string)" style="text;html=1;align=center;verticalAlign=middle;whiteSpace=wrap;rounded=0;" vertex="1" parent="1">
          <mxGeometry x="1010" y="2300" width="270" height="30" as="geometry" />
        </mxCell>
        <mxCell id="dcVQTKdJammGfZCv8vj_-17" value="" style="endArrow=none;html=1;rounded=0;entryX=0.644;entryY=0.989;entryDx=0;entryDy=0;exitX=0;exitY=0.5;exitDx=0;exitDy=0;entryPerimeter=0;" edge="1" parent="1" source="dcVQTKdJammGfZCv8vj_-18" target="dcVQTKdJammGfZCv8vj_-2">
          <mxGeometry width="50" height="50" relative="1" as="geometry">
            <mxPoint x="1373" y="2580" as="sourcePoint" />
            <mxPoint x="953" y="2410" as="targetPoint" />
            <Array as="points">
              <mxPoint x="950" y="2510" />
            </Array>
          </mxGeometry>
        </mxCell>
        <mxCell id="dcVQTKdJammGfZCv8vj_-18" value="tr: &lt;u&gt;TipoRegistro&lt;/u&gt;" style="rounded=0;whiteSpace=wrap;html=1;" vertex="1" parent="1">
          <mxGeometry x="1530" y="2480" width="120" height="60" as="geometry" />
        </mxCell>
        <mxCell id="dcVQTKdJammGfZCv8vj_-19" value="1.3[ok] tr := create(nombreEdicion: string, nombreTipo: string, descripcion: string, costo: int, cupo:int)" style="text;html=1;align=center;verticalAlign=middle;whiteSpace=wrap;rounded=0;" vertex="1" parent="1">
          <mxGeometry x="970" y="2480" width="540" height="30" as="geometry" />
        </mxCell>
        <mxCell id="dcVQTKdJammGfZCv8vj_-27" value="" style="group" vertex="1" connectable="0" parent="1">
          <mxGeometry x="190" y="2220" width="120" height="60" as="geometry" />
        </mxCell>
        <mxCell id="dcVQTKdJammGfZCv8vj_-28" value="" style="rounded=0;whiteSpace=wrap;html=1;" vertex="1" parent="dcVQTKdJammGfZCv8vj_-27">
          <mxGeometry width="120" height="60" as="geometry" />
        </mxCell>
        <mxCell id="dcVQTKdJammGfZCv8vj_-29" value=":&lt;u&gt;Controller&lt;/u&gt;" style="text;html=1;align=center;verticalAlign=middle;whiteSpace=wrap;rounded=0;" vertex="1" parent="dcVQTKdJammGfZCv8vj_-27">
          <mxGeometry x="30" y="15" width="60" height="30" as="geometry" />
        </mxCell>
        <mxCell id="UM6TT01xHi1KSaLNP45y-1" value="altaTRegistro(nombreEdicion: string, nombreTipo: string, descripcion: string, costo: int, cupo:int)" style="text;html=1;align=center;verticalAlign=middle;whiteSpace=wrap;rounded=0;" vertex="1" parent="1">
          <mxGeometry x="-337" y="2220" width="517" height="30" as="geometry" />
        </mxCell>
        <mxCell id="Sws8evgWazgU5Ud9hTpa-1" value="" style="endArrow=none;html=1;rounded=0;exitX=1;exitY=0.5;exitDx=0;exitDy=0;entryX=0;entryY=0.5;entryDx=0;entryDy=0;" edge="1" parent="1" source="dcVQTKdJammGfZCv8vj_-15" target="Sws8evgWazgU5Ud9hTpa-6">
          <mxGeometry width="50" height="50" relative="1" as="geometry">
            <mxPoint x="1470" y="2370" as="sourcePoint" />
            <mxPoint x="1650" y="2360" as="targetPoint" />
          </mxGeometry>
        </mxCell>
        <mxCell id="Sws8evgWazgU5Ud9hTpa-2" value="1.2. ok:= member(nombreRegistro: string)" style="text;html=1;align=center;verticalAlign=middle;whiteSpace=wrap;rounded=0;" vertex="1" parent="1">
          <mxGeometry x="1440" y="2300" width="250" height="30" as="geometry" />
        </mxCell>
        <mxCell id="Sws8evgWazgU5Ud9hTpa-3" value="" style="group" vertex="1" connectable="0" parent="1">
          <mxGeometry x="1700" y="2310" width="140" height="80" as="geometry" />
        </mxCell>
        <mxCell id="Sws8evgWazgU5Ud9hTpa-4" value="" style="group" vertex="1" connectable="0" parent="Sws8evgWazgU5Ud9hTpa-3">
          <mxGeometry y="10" width="130" height="70" as="geometry" />
        </mxCell>
        <mxCell id="Sws8evgWazgU5Ud9hTpa-5" value="" style="rounded=0;whiteSpace=wrap;html=1;" vertex="1" parent="Sws8evgWazgU5Ud9hTpa-4">
          <mxGeometry x="10" width="120" height="60" as="geometry" />
        </mxCell>
        <mxCell id="Sws8evgWazgU5Ud9hTpa-6" value=":TipoRegistro" style="rounded=0;whiteSpace=wrap;html=1;" vertex="1" parent="Sws8evgWazgU5Ud9hTpa-4">
          <mxGeometry y="10" width="120" height="60" as="geometry" />
        </mxCell>
        <mxCell id="Sws8evgWazgU5Ud9hTpa-7" value="1.4 [ok] := agregar(tr)" style="text;html=1;align=center;verticalAlign=middle;whiteSpace=wrap;rounded=0;" vertex="1" parent="1">
          <mxGeometry x="1073.25" y="2330" width="130" height="30" as="geometry" />
        </mxCell>
        <mxCell id="Sws8evgWazgU5Ud9hTpa-8" value="1.4.1 add(tr)" style="text;html=1;align=center;verticalAlign=middle;whiteSpace=wrap;rounded=0;" vertex="1" parent="1">
          <mxGeometry x="1482" y="2330" width="130" height="30" as="geometry" />
        </mxCell>
        <mxCell id="Sws8evgWazgU5Ud9hTpa-9" value="&lt;span style=&quot;background-color: rgb(0, 255, 255);&quot;&gt;Es necesario agregar [ok] de vuelta?&lt;/span&gt;" style="shape=note;whiteSpace=wrap;html=1;backgroundOutline=1;darkOpacity=0.05;" vertex="1" parent="1">
          <mxGeometry x="1560" y="2110" width="280" height="100" as="geometry" />
        </mxCell>
        <mxCell id="Sws8evgWazgU5Ud9hTpa-11" value="" style="endArrow=none;dashed=1;html=1;rounded=0;exitX=0.138;exitY=0.667;exitDx=0;exitDy=0;exitPerimeter=0;" edge="1" parent="1" source="Sws8evgWazgU5Ud9hTpa-8">
          <mxGeometry width="50" height="50" relative="1" as="geometry">
            <mxPoint x="1510" y="2260" as="sourcePoint" />
            <mxPoint x="1560" y="2210" as="targetPoint" />
          </mxGeometry>
        </mxCell>
      </root>
    </mxGraphModel>
  </diagram>
  <diagram id="AstDBFkzIsTgUu8P7Yen" name="Página-4">
    <mxGraphModel grid="1" page="1" gridSize="10" guides="1" tooltips="1" connect="1" arrows="1" fold="1" pageScale="1" pageWidth="827" pageHeight="1169" math="0" shadow="0">
      <root>
        <mxCell id="0" />
        <mxCell id="1" parent="0" />
      </root>
    </mxGraphModel>
  </diagram>
</mxfile>
